<svg width="265" height="333" viewBox="0 0 265 333" fill="none" xmlns="http://www.w3.org/2000/svg">
<path fill-rule="evenodd" clip-rule="evenodd" d="M200.224 135.875C198.705 136.553 197.16 137.28 195.593 137.94C191.593 139.636 187.443 138.493 185.017 134.927C184.219 133.757 183.687 132.394 183.08 131.101C182.713 130.325 182.511 129.466 182.126 128.706C181.381 127.219 179.781 126.846 178.564 127.888C177.809 128.539 177.217 129.384 176.446 130.017C173.212 132.652 168.436 132.386 165.568 129.351C162.887 126.52 161.644 123.016 161.59 119.157C161.564 117.305 161.968 115.454 162.235 113.605C162.335 112.897 162.726 112.216 162.737 111.52C162.738 110.865 162.602 109.983 162.17 109.614C161.746 109.254 160.8 109.177 160.232 109.392C159.17 109.777 158.219 110.461 157.224 111.02C154.894 112.322 152.398 112.684 149.781 112.387C144.66 111.812 142.028 108.959 142.17 103.805C142.212 102.111 142.707 100.419 143.04 98.7364C143.15 98.1838 143.577 97.6352 143.532 97.1175C143.484 96.4687 143.23 95.7136 142.801 95.263C142.512 94.957 141.702 94.9502 141.217 95.1035C140.56 95.3074 140.004 95.8346 139.375 96.1624C137.098 97.3437 134.894 98.749 132.508 99.6312C125.628 102.158 120.136 98.3913 119.767 90.9411C119.686 89.2509 120.093 87.5306 120.329 85.8281C120.429 85.1277 120.862 84.4238 120.799 83.758C120.741 83.1416 120.344 82.3072 119.858 82.0592C119.349 81.8102 118.52 82.0566 117.895 82.2781C117.558 82.3961 117.351 82.9122 117.087 83.246C114.28 86.8063 110.378 88.4816 106.203 89.6796C105.932 89.7593 105.646 89.8137 105.369 89.8521C99.5679 90.7007 95.5955 87.4842 95.3057 81.5521C95.176 78.82 95.3383 76.0911 96.147 73.4281C96.481 72.3436 96.6721 71.1799 96.716 70.0433C96.7726 68.5795 95.2318 67.7256 93.9933 68.4967C93.1536 69.0211 92.4509 69.7801 91.611 70.3127C89.8065 71.4549 88.024 72.6554 86.1143 73.5806C84.13 74.544 81.9767 74.428 79.8287 73.96C76.5943 73.2699 74.6792 71.3942 74.4283 67.1833C74.1875 63.1285 75.7682 59.5945 78.2979 56.482C78.9791 55.6485 79.8598 55.3222 80.9101 55.2236C82.3922 55.0762 83.6977 54.4633 84.5181 53.1765C84.872 52.6252 85.1373 51.8492 85.0557 51.2319C84.9388 50.2692 84.0412 49.7759 83.1816 49.7672C82.2248 49.7548 81.1567 49.8937 80.3128 50.3197C78.7988 51.0801 77.3898 51.435 75.8774 50.4757C74.1041 49.3426 72.8662 47.7879 72.6078 45.6568C72.1343 41.7486 72.9522 38.2178 75.8613 35.3657C78.7282 32.553 82.1911 30.9016 86.1033 30.4304C89.2007 30.0507 92.3461 30.1067 95.4661 29.9817C96.0347 29.9627 96.6141 30.0834 97.1684 30.0148C98.5864 29.8485 99.6162 28.6025 99.0505 27.2867C98.1202 25.1215 98.8552 23.3155 99.7598 21.5325C102.15 16.7931 105.692 13.0811 110.24 10.4398C111.567 9.67217 113.128 9.18381 114.647 8.92316C119.351 8.09776 121.858 9.35756 124.262 13.4879C126.962 18.1374 127.474 18.3128 131.608 15.0576C135.005 12.38 138.772 11.0515 143.054 10.8813C146.198 10.7572 149.354 10.5435 152.423 11.3091C154.327 11.784 156.264 12.4567 157.945 13.4635C160.538 15.0132 162.027 17.4293 161.96 20.6124C161.941 21.3323 161.798 22.0803 161.95 22.7577C162.104 23.4024 162.439 24.1688 162.945 24.5241C163.711 25.0532 164.576 24.7182 165.266 24.0815C165.476 23.8849 165.702 23.7053 165.881 23.4829C169.462 19.2073 174.231 18.802 179.189 19.6161C182.591 20.1735 185.653 21.7659 188.305 24.096C190.941 26.4008 192.308 29.2299 192.341 32.7772C192.383 37.5859 192.422 37.6202 196.867 38.8813C202.332 40.4274 207.109 43.1999 211.268 47.0378C212.412 48.0893 213.476 49.3179 214.243 50.666C215.96 53.6642 215.561 56.0237 213.178 58.4866C212.679 58.9997 212.064 59.4017 211.589 59.9239C210.42 61.1972 210.549 62.6844 211.933 63.606C212.764 64.1622 213.689 64.5584 214.563 65.0508C217.199 66.5203 219.664 68.2371 221.728 70.4543C222.702 71.4911 223.665 72.6011 224.356 73.8317C225.988 76.7283 225.868 79.6227 223.777 82.2935C223.069 83.1915 222.258 84.0119 221.503 84.8753C219.898 86.7296 219.714 88.7534 220.948 90.8485C221.815 92.3315 222.807 93.7457 223.724 95.1979C224.641 96.6583 225.616 98.0882 226.385 99.6166C226.881 100.618 227.153 101.775 227.345 102.888C227.59 104.315 227.002 105.463 225.658 106.042C224.486 106.553 223.261 106.956 222.038 107.335C220.946 107.669 219.797 107.813 218.735 108.214C216.167 109.172 215.357 111.237 216.599 113.742C217.103 114.76 217.813 115.68 218.491 116.607C219.246 117.652 220.117 118.619 220.855 119.671C223.654 123.653 223.583 126.558 220.417 130.178C216.767 134.353 212.303 136.923 206.576 136.718C205.45 136.675 204.295 136.966 203.18 136.841C202.204 136.689 201.289 136.219 200.224 135.875Z" fill="#86604F"/>
<path fill-rule="evenodd" clip-rule="evenodd" d="M76.7364 76.8952C81.8794 78.7893 86.6747 78.1394 91.6454 75.0476C91.6111 77.4048 91.6005 78.9358 91.5579 80.4574C91.4798 83.1077 91.9828 85.6249 93.2726 87.9351C94.9794 90.9984 97.4773 92.9048 101.001 93.4505C104.509 93.9956 107.81 93.4025 111.027 92.0037C112.438 91.3949 113.84 90.794 115.548 90.0656C115.795 91.017 115.964 91.6705 116.126 92.3237C116.407 93.432 116.59 94.5855 116.987 95.6573C119.532 102.422 124.631 105.444 132.368 103.631C134.152 103.216 135.847 102.389 137.888 101.649C138.031 102.556 138.188 103.315 138.264 104.088C139.013 112.208 142.885 115.92 151.031 116.088C153.139 116.128 155.255 115.751 157.526 115.544C158.411 116.586 157.888 117.925 157.874 119.128C157.833 122.705 158.859 125.972 160.617 128.98C162.329 131.904 164.627 134.138 168.046 135.09C171.096 135.936 173.958 135.785 176.757 134.313C177.61 133.862 178.464 133.388 179.433 132.868C180.239 134.251 180.904 135.513 181.686 136.706C184.145 140.445 187.598 142.405 192.071 142.554C193.991 142.62 195.752 142.18 197.403 141.236C198.382 140.676 199.33 140.058 200.228 139.511C201.276 140.1 200.842 140.829 200.616 141.418C198.624 146.377 196.042 151.036 193.033 155.423C189.465 160.633 185.787 165.765 181.432 170.346C174.836 177.273 167.432 183.088 158.668 186.934C151.117 190.246 143.242 191.857 134.931 191.561C127.194 191.286 119.579 190.369 112.044 188.661C103.592 186.737 95.9882 183.037 88.7959 178.123C81.5167 173.15 76.0482 166.665 71.4744 159.282C66.1976 150.774 63.9283 141.276 63.3369 131.393C62.6721 120.263 63.7148 109.239 66.3249 98.3829C68.1443 90.7716 71.791 83.1081 76.7364 76.8952ZM99.6842 145.353C99.5538 149.565 99.9696 153.709 100.956 157.776C102.517 164.2 108.769 169.928 114.974 170.799C122.494 171.851 128.574 169.433 132.506 162.788C134.98 158.609 137.018 154.142 138.951 149.672C140.359 146.41 139.472 144.606 136.295 143.042C135.404 142.607 134.459 142.275 133.505 141.976C130.788 141.126 128.054 140.308 125.326 139.506C117.778 137.29 109.932 136.7 102.222 135.313C101.771 135.23 100.753 135.968 100.686 136.432C100.247 139.388 99.994 142.376 99.6842 145.353ZM96.7707 115.799C96.7251 115.298 96.6797 114.584 96.5611 113.875C96.2401 111.897 95.2876 110.304 93.3663 109.641C91.2048 108.894 89.1125 109.296 87.3507 110.8C85.0856 112.735 84.1606 117.777 85.5767 120.387C86.6289 122.336 88.2719 123.275 90.5099 123.092C93.8951 122.821 96.6351 119.725 96.7707 115.799ZM152.226 138.261C151.831 141.555 154.194 145.29 156.852 145.573C159.502 145.856 162.922 143.408 163.268 140.981C163.744 137.683 161.496 134.337 158.489 133.868C155.311 133.377 152.585 135.286 152.226 138.261Z" fill="#CCA18F"/>
<path fill-rule="evenodd" clip-rule="evenodd" d="M175.22 294.536C172.668 296.558 166.515 299.588 163.816 300.155C161.534 300.632 160.263 300.14 159.207 298.085C158.482 296.689 157.907 295.201 157.405 293.7C156.757 291.799 156.281 289.84 155.682 287.917C154.895 285.389 154.406 285.026 151.752 284.858C151.04 284.814 150.322 284.72 149.614 284.775C143.281 285.324 137.134 283.998 130.95 283.021C127.572 282.481 124.173 282.055 120.803 281.499C118.699 281.156 116.579 280.803 114.534 280.2C112.842 279.701 111.547 280.24 110.686 281.943C110.361 282.586 110.148 283.282 109.847 283.925C107.732 288.487 105.697 293.084 103.438 297.575C101.469 301.495 100.826 301.765 96.6871 300.549C92.8768 299.435 89.142 298.046 85.6663 296.88C84.8089 295.348 85.1768 294.224 85.6067 293.176C86.3143 291.451 87.1658 289.78 87.9774 288.092C89.8932 284.071 91.8091 280.05 93.7408 276.039C94.5433 274.374 95.4175 272.746 96.3644 270.915C99.238 271.288 101.892 271.686 104.566 271.978C120.043 273.673 135.548 274.887 151.072 272.654C155.273 272.055 159.366 270.698 163.894 269.603C164.24 270.084 164.918 270.806 165.308 271.648C168.643 278.967 171.928 286.317 175.205 293.659C175.293 293.924 175.207 294.249 175.22 294.536Z" fill="#FFE7A4"/>
<path fill-rule="evenodd" clip-rule="evenodd" d="M94.6596 249.361C94.6583 244.57 95.6604 239.843 96.5015 235.084C98.6869 234.792 100.462 235.254 102.235 235.773C110.906 238.311 119.786 239.432 128.777 239.805C131.765 239.928 134.743 239.912 137.697 239.249C141.871 238.313 146.101 237.813 150.372 237.495C153.602 237.259 156.787 236.49 160.012 235.951C161.354 238.591 163.353 247.111 163.656 251.652C152.746 255.62 141.492 256.298 130.056 254.972C120.437 253.855 110.829 252.68 101.23 251.466C99.0098 251.2 96.6585 251.166 94.6596 249.361Z" fill="#DDF4E4"/>
<path fill-rule="evenodd" clip-rule="evenodd" d="M97.2721 230.414C97.5523 226.314 98.2428 222.303 99.1143 218.226C105.872 219.069 112.213 219.773 118.53 220.664C124.783 221.544 131.001 221.654 137.239 220.625C138.08 220.486 138.93 220.331 139.782 220.314C145.318 220.225 150.845 220.161 156.575 220.096C157.976 223.516 158.524 227.189 159.481 230.969C158.789 231.442 158.182 232.049 157.441 232.323C155.308 233.141 153.109 233.581 150.798 233.753C146.975 234.031 143.11 234.316 139.372 235.113C134.423 236.167 129.513 236.222 124.522 235.866C115.68 235.229 107.101 233.227 98.546 231.037C98.152 230.948 97.805 230.689 97.2721 230.414Z" fill="#28E7B1"/>
<path fill-rule="evenodd" clip-rule="evenodd" d="M93.1491 265.943C93.0471 261.656 93.2707 257.972 93.9714 254.117C95.9464 254.439 97.7343 254.778 99.5424 255.012C107.743 256.082 115.932 257.259 124.157 258.126C130.103 258.757 136.097 259.201 142.081 259.277C148.073 259.353 154.021 258.478 159.834 256.893C161.334 256.484 162.788 256.016 164.228 256.129C164.444 256.408 164.602 256.512 164.614 256.635C165.764 265.074 165.021 264.791 158.211 267.173C155.407 268.154 152.425 268.71 149.472 269.12C139.538 270.489 129.569 270.267 119.583 269.627C112.178 269.16 104.798 268.474 97.5009 267.111C96.132 266.845 94.7951 266.384 93.1491 265.943Z" fill="#28E7B1"/>
<path fill-rule="evenodd" clip-rule="evenodd" d="M246.192 150.224C247.067 151.92 246.617 153.287 246.054 154.624C245.662 155.551 245.125 156.415 244.757 157.342C244.415 158.197 244.451 159.156 245.268 159.655C245.783 159.961 246.649 160.028 247.224 159.829C248.564 159.365 249.803 158.602 251.128 158.088C251.903 157.782 252.773 157.718 253.485 157.573C254.683 158.463 254.384 159.483 253.977 160.376C253.249 162.003 251.963 163.148 250.422 163.982C249.544 164.455 248.635 164.871 247.764 165.369C246.976 165.822 246.348 166.543 246.621 167.454C246.792 168.059 247.351 168.719 247.908 168.994C249.055 169.555 250.343 169.801 251.516 170.313C252.513 170.753 253.65 171.141 253.933 172.429C252.952 173.882 251.348 173.591 250.034 174.023C249.097 174.323 248.065 174.373 247.144 174.706C245.984 175.128 245.574 176.488 246.246 177.57C246.773 178.418 247.458 179.165 247.993 180.012C248.291 180.483 248.423 181.061 248.623 181.56C247.123 183.435 245.418 183.672 243.238 182.973C239.464 181.763 236.281 179.74 233.688 176.74C233.408 176.418 233.088 176.103 232.899 175.727C229.719 169.446 226.595 163.159 227.637 155.73C227.904 153.849 228.403 152.075 229.358 150.449C229.705 149.865 230.282 149.42 230.79 148.875C233.515 150.168 234.394 152.601 235.241 155.041C235.569 155.98 235.676 157.007 236.071 157.899C236.564 158.999 238.298 159.05 238.899 157.992C239.317 157.255 239.52 156.403 239.85 155.621C241.111 152.591 242.698 151.211 246.192 150.224Z" fill="#CCA18F"/>
<path fill-rule="evenodd" clip-rule="evenodd" d="M21.4073 116.015C24.625 117.139 27.9549 119.978 29.942 123.347C30.3759 124.084 30.6521 124.914 31.0691 125.667C31.517 126.463 32.1853 127.012 33.1568 126.854C34.1776 126.68 34.484 125.889 34.5116 124.965C34.5286 124.106 34.392 123.232 34.5137 122.394C34.9361 119.233 37.8798 116.742 41.0841 116.743C42.1792 116.745 43.1101 117.428 43.092 118.524C43.0665 120.235 43.0944 122.029 42.5866 123.623C41.4977 127.029 40.096 130.34 38.7669 133.663C38.1205 135.276 37.308 136.776 35.5283 137.485C34.6879 137.821 34.469 138.656 34.2476 139.556C32.9053 144.901 27.949 148.878 22.5147 149.061C22.1327 149.079 21.7368 148.826 21.0883 148.605C21.3699 147.616 21.5922 146.691 21.919 145.795C22.1639 145.125 22.6814 144.539 22.8292 143.865C22.9672 143.231 22.9577 142.428 22.6792 141.869C22.2348 140.984 21.2848 141.004 20.417 141.208C19.59 141.406 18.796 141.801 17.9641 141.916C16.2513 142.153 14.515 142.159 13.0213 141.135C12.4841 140.762 11.7586 140.014 11.8337 139.542C11.9512 138.809 12.5244 137.832 13.1592 137.57C14.2966 137.106 15.6338 137.142 16.8612 136.87C17.982 136.626 18.4157 134.85 17.5616 134.071C17.154 133.704 16.6107 133.486 16.1523 133.173C15.4487 132.696 14.7031 132.258 14.0928 131.677C13.3414 130.968 12.84 130.089 13.3207 128.986C13.8021 127.866 14.5519 126.937 15.8327 126.962C17.0973 126.986 18.3708 127.199 19.6004 127.5C20.4122 127.696 21.1643 128.175 21.9196 128.573C22.7858 129.04 23.5837 128.965 24.2589 128.287C24.9594 127.585 24.8446 126.778 24.4232 125.926C23.4233 123.881 22.3991 121.835 21.5317 119.722C20.9829 118.39 21.0982 118.345 21.4073 116.015Z" fill="#CCA18F"/>
<path fill-rule="evenodd" clip-rule="evenodd" d="M154.264 207.271C155.523 209.965 155.377 212.703 155.94 215.541C154.995 215.857 154.232 216.294 153.451 216.346C151.605 216.463 149.745 216.317 147.9 216.402C143.641 216.606 139.381 216.842 135.127 217.144C131.295 217.422 127.482 217.848 123.623 217.363C117.834 216.64 112.024 216.063 106.224 215.413C104.116 215.176 102.019 214.857 99.9666 213.811C99.9359 210.829 100.739 208.101 101.188 205.096C101.992 205.078 102.696 204.9 103.306 205.071C113.611 207.959 124.159 207.696 134.7 207.62C136.972 207.61 139.249 207.665 141.503 207.916C144.209 208.217 146.881 208.353 149.571 207.81C151.083 207.5 152.635 207.445 154.264 207.271Z" fill="#DDF4E4"/>
<path fill-rule="evenodd" clip-rule="evenodd" d="M153.502 203.057C150.118 204.146 146.932 204.498 143.638 204.305C139.672 204.07 135.691 203.801 131.721 203.885C124.308 204.033 116.92 203.984 109.606 202.629C107.126 202.164 104.566 201.861 102.143 200.326C102.664 197.127 102.523 193.838 104.11 190.558C119.405 194.671 134.768 196.829 150.625 193.962C151.98 196.88 152.733 199.874 153.502 203.057Z" fill="#28E7B1"/>
<path fill-rule="evenodd" clip-rule="evenodd" d="M59.4297 112.252C57.0728 111.523 55.9087 109.528 54.8758 107.499C53.0969 103.99 52.2542 100.19 52.0483 96.2844C51.8787 93.1167 52.0901 89.9556 52.972 86.8696C53.5726 84.7636 54.4669 82.8245 55.9888 81.2291C57.4175 79.7365 59.112 79.3434 61.075 79.9762C64.7769 81.1675 66.8809 84.8686 65.5168 88.4683C62.8512 95.5146 61.3441 102.81 60.3994 110.251C60.3424 110.674 60.2288 111.096 60.0594 111.491C59.9602 111.749 59.7099 111.928 59.4297 112.252Z" fill="#CCA18F"/>
<path fill-rule="evenodd" clip-rule="evenodd" d="M38.6534 313.717C38.8113 312.781 38.8775 311.908 39.1122 311.081C40.4555 306.343 42.58 301.961 45.2698 297.856C46.3216 296.251 47.836 295.687 49.6549 295.643C51.0678 295.607 52.1368 296.074 52.7573 297.441C53.1761 298.358 53.6445 299.253 54.1796 300.101C54.9288 301.284 55.012 302.491 54.6685 303.821C54.3144 305.216 54.0731 306.632 53.7511 308.036C52.7058 312.622 50.0818 316.075 46.3042 318.73C44.6202 319.901 42.8657 320.169 41.0702 319.191C39.2584 318.212 38.5777 316.515 38.6153 314.494C38.6263 314.207 38.6455 313.921 38.6534 313.717Z" fill="#28E7B1"/>
<path fill-rule="evenodd" clip-rule="evenodd" d="M194.155 160.889C196.392 157.184 198.308 154.187 200.035 151.076C201.7 148.094 203.158 144.998 204.739 141.882C207.295 141.661 209.68 142.073 211.935 142.913C214.838 143.992 215.798 146.027 215.063 149.078C214.869 149.898 214.505 150.711 214.079 151.448C213.008 153.347 211.583 154.954 209.791 156.187C205.333 159.25 200.361 160.679 194.155 160.889Z" fill="#CCA18F"/>
<path fill-rule="evenodd" clip-rule="evenodd" d="M211.834 306.196C213.51 307.759 215.059 309.228 216.634 310.681C218.991 312.869 220.037 315.612 219.889 318.791C219.807 320.5 219.635 322.238 219.222 323.892C218.992 324.801 218.278 325.641 217.625 326.361C216.947 327.113 215.65 327.095 214.916 326.371C214.314 325.783 213.715 325.104 213.379 324.354C211.25 319.62 209.901 314.646 209.281 309.48C209.085 307.85 209.73 306.696 211.834 306.196Z" fill="#28E7B1"/>
<path fill-rule="evenodd" clip-rule="evenodd" d="M84.2955 118.911C77.8648 115.493 69.6113 116.837 65.4498 123.129C62.451 127.673 63.2732 134.313 66.2706 138.827C67.815 142.105 70.7792 144.75 74.2167 145.645C81.3886 147.519 87.7335 143.293 90.5963 136.811C93.4226 130.434 90.2734 122.082 84.2955 118.911Z" fill="#EBC6B6"/>
<path fill-rule="evenodd" clip-rule="evenodd" d="M180.949 150.943C178.802 146.061 174.338 143.603 169.404 143.421C166.672 142.963 163.797 143.253 161.274 144.31C153.399 147.609 152.108 157.706 156.882 164.114C161.201 169.916 169.676 172.07 175.879 167.945C181.441 164.253 183.687 157.15 180.949 150.943Z" fill="#EBC6B6"/>
<path fill-rule="evenodd" clip-rule="evenodd" d="M69.0446 81.5868C70.6048 79.0019 71.9311 76.8011 73.1616 74.7686C73.088 74.3644 73.1105 74.2015 73.0333 74.1003C69.3983 68.6612 70.2828 63.2004 72.9603 57.7351C73.4624 56.7063 74.068 55.7306 74.7042 54.5923C73.9192 53.915 73.1734 53.2719 72.4272 52.6371C70.135 50.6567 68.8952 48.1028 68.6943 45.1141C68.3897 40.6146 69.5609 36.5488 72.716 33.2067C77.2163 28.4343 82.9123 26.5171 89.2664 26.255C90.8183 26.1922 92.3856 26.3592 93.7221 26.4109C94.1511 26.018 94.4979 25.8595 94.5308 25.6396C95.639 19.0081 99.5021 14.1374 104.379 9.91188C105.353 9.06507 106.396 8.30287 107.478 7.60764C110.181 5.87774 113.154 4.94444 116.371 4.83132C120.368 4.68285 123.594 6.20796 126.043 9.38184C126.824 10.3866 127.529 11.4375 128.276 12.4819C128.805 12.2239 129.224 12.1008 129.558 11.8517C137.785 5.74112 146.888 5.90476 156.139 8.35889C160.13 9.41402 163.182 12.0871 164.878 16.0672C165.102 16.5836 165.366 17.0852 165.561 17.494C166.623 18.1411 167.295 17.3481 168.02 17.0486C176.126 13.6522 186.448 16.0904 192.625 23.1264C194.358 25.1015 195.477 27.4214 195.812 30.0796C195.985 31.4948 196.157 32.9182 196.347 34.5143C197.426 34.9246 198.473 35.3335 199.53 35.702C204.852 37.562 209.627 40.3754 213.778 44.2211C214.828 45.1871 215.825 46.2412 216.657 47.4034C219.581 51.4884 219.653 55.5203 216.995 59.848C216.77 60.216 216.529 60.567 216.15 61.142C216.881 61.7353 217.568 62.4416 218.385 62.9317C220.985 64.5064 223.303 66.4304 225.242 68.7329C226.515 70.2398 227.689 71.9641 228.405 73.7934C229.851 77.5263 229.297 81.1573 226.868 84.3965C225.927 85.6459 224.9 86.8182 223.767 88.2075C224.653 89.634 225.462 90.9674 226.287 92.2932C227.348 93.9967 228.501 95.6464 229.463 97.4115C230.077 98.5326 230.548 99.7711 230.841 101.019C231.894 105.457 230.482 108.195 226.262 109.932C225.083 110.419 223.801 110.64 222.569 111.026C221.772 111.274 220.997 111.604 220.018 111.967C220.567 112.873 220.959 113.625 221.444 114.307C222.199 115.352 223.053 116.327 223.808 117.38C227.664 122.762 227.464 127.717 223.183 132.694C221.391 134.779 219.327 136.533 216.915 137.865C216.07 138.332 215.261 138.89 214.413 139.423C214.731 139.803 214.883 140.063 215.096 140.219C216.864 141.507 218.456 142.904 218.795 145.267C219.19 148.059 218.852 150.723 217.426 153.191C215.434 156.66 212.623 159.278 209.091 161.041C204.699 163.23 200.084 164.665 195.107 164.563C193.972 164.543 192.839 164.475 191.511 164.424C190.704 165.342 189.825 166.275 189.024 167.268C181.479 176.705 172.496 184.35 161.7 189.756C161.46 189.877 161.264 190.115 160.811 190.507C161.38 190.906 161.839 191.407 162.391 191.592C173.089 195.232 183.921 195.602 194.858 192.831C205.025 190.26 214.644 186.332 223.595 180.79C225.432 179.657 227.174 178.439 228.618 176.357C227.708 174.07 226.729 171.698 225.816 169.312C223.81 164.1 222.962 158.777 224.295 153.235C224.845 150.972 225.658 148.825 227.156 147.024C229.223 144.548 231.87 144.282 234.26 146.463C235.6 147.686 236.693 149.194 238.007 150.686C238.962 149.896 239.772 149.076 240.712 148.473C241.91 147.717 243.15 146.897 244.479 146.514C247.588 145.643 249.823 147.212 250.322 150.442C250.479 151.422 250.44 152.428 250.508 153.61C251.642 153.654 252.728 153.688 253.805 153.737C256.259 153.849 257.453 154.845 258.01 157.225C258.573 159.671 257.786 161.778 256.373 163.697C255.62 164.716 254.749 165.632 253.78 166.774C254.745 167.606 255.645 168.263 256.418 169.046C259.072 171.736 258.64 174.709 255.346 176.4C254.229 176.971 253.013 177.358 251.818 177.844C252.061 179.532 252.457 181.054 252.479 182.586C252.509 184.946 251.854 185.535 249.729 186.354C244.763 188.274 240.488 186.389 236.364 183.929C234.549 182.843 232.95 181.373 231.099 179.95C229.511 181.15 228.009 182.459 226.346 183.492C214.169 191.047 201.111 196.226 186.852 198.041C177.599 199.223 168.666 197.78 159.918 194.731C158.469 194.225 157.021 193.702 155.156 193.04C155.18 194.106 155.038 194.829 155.243 195.41C157.57 201.945 158.547 208.772 159.867 215.555C161.6 224.45 163.831 233.242 165.753 242.095C166.785 246.868 167.743 251.672 168.497 256.508C168.985 259.622 169.21 262.833 167.851 265.868C167.238 267.236 167.877 268.358 168.431 269.543C170.627 274.23 172.79 278.924 174.952 283.627C175.491 284.802 175.997 285.993 176.486 287.191C177.344 289.329 178.223 291.369 180.168 292.869C181.641 294.007 181.306 295.763 179.692 296.79C177.771 298.01 175.812 299.171 173.66 300.488C173.848 301.502 173.915 302.488 174.228 303.401C175.292 306.529 176.256 309.719 177.608 312.72C178.722 315.179 180.104 317.607 181.784 319.703C185.12 323.853 189.745 324.449 193.888 321.145C199.078 316.998 203.391 312.046 205.756 305.627C207.044 302.114 211.361 300.815 214.141 303.191C216.309 305.044 218.364 307.072 220.302 309.178C221.252 310.206 222.013 311.505 222.539 312.811C224.294 317.145 224.066 321.575 222.495 325.896C221.333 329.102 218.918 330.728 216.058 330.634C214.073 330.566 212.407 329.805 211.31 328.158C210.444 326.855 209.671 325.441 209.136 323.971C208.24 321.545 207.574 319.046 206.785 316.575C206.539 315.804 206.219 315.063 205.806 313.982C204.658 315.371 203.802 316.509 202.838 317.544C200.976 319.528 199.169 321.587 197.136 323.384C190.407 329.348 182.373 327.317 178.14 321.192C176.519 318.844 175.1 316.308 173.952 313.692C172.625 310.676 171.71 307.48 170.597 304.366C170.363 303.726 170.037 303.116 169.671 302.307C168.16 302.789 166.836 303.254 165.499 303.636C160.683 305.014 157.486 303.572 155.384 298.979C154.614 297.286 154.092 295.473 153.486 293.713C152.968 292.227 152.491 290.727 151.953 289.101C150.937 288.939 149.953 288.581 149.009 288.676C143.382 289.22 137.916 287.911 132.43 287.134C127.782 286.479 123.194 285.335 118.484 285.055C117.076 284.968 115.695 284.595 114.075 284.319C113.681 285.066 113.264 285.779 112.911 286.51C110.655 291.156 108.541 295.89 106.109 300.448C103.617 305.117 102.111 305.657 97.0752 304.57C96.1098 304.36 95.1344 304.2 94.1353 304.022C93.004 305.166 92.8499 306.634 92.4248 307.977C91.4554 311.019 90.0571 313.823 88.2203 316.429C84.1076 322.298 77.2792 322.869 72.2325 320.373C69.2474 318.898 66.7337 316.77 64.5003 314.317C62.4768 312.101 60.5373 309.807 58.6023 307.611C57.4997 307.593 57.4846 308.403 57.3453 309.069C56.1121 314.738 52.7711 318.9 48.1131 322.085C45.2715 324.031 42.2509 324.316 39.2447 322.545C36.2859 320.809 34.8072 318.14 34.9008 314.671C34.9345 313.378 35.0019 312.054 35.3254 310.822C36.7859 305.359 39.203 300.334 42.2982 295.605C44.1429 292.794 46.6255 291.531 49.9085 291.805C51.4531 291.93 52.9877 292.104 54.289 292.228C56.064 295.417 57.6816 298.272 59.2331 301.158C61.7839 305.891 65.205 309.938 69.0965 313.569C70.4433 314.825 71.9898 315.949 73.6028 316.822C78.0455 319.205 82.2886 318.149 85.3099 314.073C87.7574 310.777 89.0232 306.994 89.9228 302.819C89.0236 302.367 88.1824 301.884 87.3043 301.514C85.9871 300.964 84.6068 300.574 83.3073 299.984C81.7129 299.259 80.8397 297.923 81.1594 296.158C81.4894 294.336 81.974 292.504 82.633 290.777C83.3543 288.905 84.3632 287.151 85.2366 285.334C87.5847 280.413 89.9251 275.483 92.3612 270.385C91.9169 269.918 91.6103 269.455 91.1917 269.161C89.8877 268.267 89.3619 266.969 89.2899 265.476C89.2264 264.179 89.244 262.886 89.3591 261.588C90.2702 250.822 91.8109 240.137 93.5214 229.467C94.8464 221.214 96.1144 212.967 97.4229 204.722C97.8944 201.759 98.4061 198.806 98.9356 195.6C97.8675 195.321 97.0903 195.07 96.2934 194.908C93.0577 194.251 89.9845 193.166 86.97 191.821C75.0469 186.52 64.7013 179.028 55.8925 169.343C49.0369 161.806 42.3231 154.168 36.7078 145.606C36.639 145.497 36.4867 145.45 36.3521 145.363C35.2406 145.156 34.9107 146.134 34.4882 146.781C32.0117 150.616 28.1938 152.008 24.012 152.739C23.1869 152.888 22.303 152.878 21.4634 152.772C18.6213 152.424 17.4919 151.21 17.2468 148.317C17.1954 147.759 17.2823 147.189 17.3146 146.355C16.166 146.056 15.0795 145.834 14.0466 145.483C12.8454 145.076 11.5695 144.716 10.5171 144.028C7.69298 142.166 7.16481 139.042 9.07752 136.152C9.54275 135.449 10.1425 134.833 10.7639 134.079C9.12253 131.42 8.73147 128.735 10.6531 126.033C12.0681 124.057 13.0114 123.577 18.2377 122.477C18.05 121.668 17.7729 120.863 17.707 120.049C17.5702 118.341 17.3213 116.595 17.5164 114.907C17.8123 112.29 19.5744 111.195 22.1257 111.932C23.329 112.282 24.5222 112.893 25.5568 113.621C26.9633 114.593 28.215 115.788 29.5354 116.887C30.1719 117.419 30.8081 117.96 31.5468 118.578C32.4446 117.597 33.1994 116.75 33.9778 115.92C35.8554 113.937 38.2499 113.064 40.8702 112.854C44.0357 112.599 46.3056 114.53 46.83 117.752C47.2289 120.232 46.8587 122.675 46.1679 125.015C44.5186 130.536 42.4695 135.903 38.8855 140.686C39.4365 143.222 41.0118 145.281 42.4971 147.361C47.7523 154.746 53.6864 161.568 59.9406 168.083C63.2001 171.485 66.7441 174.66 70.4269 177.603C76.6041 182.543 83.4905 186.347 90.8063 189.324C92.7708 190.129 94.8873 190.571 96.963 191.02C98.1053 191.269 98.2437 191.045 99.4843 188.963C98.6845 188.457 97.9209 187.855 97.0684 187.453C91.3401 184.75 86.0565 181.246 81.3416 177.092C73.1667 169.896 66.9667 161.14 63.3959 150.683C60.3346 141.737 59.1094 132.509 59.4668 123.056C59.5443 121.053 59.6217 119.049 59.6998 117.029C51.7385 113.331 49.5888 106.197 48.5848 98.5912C48.0091 94.1794 48.144 89.6396 49.6488 85.341C50.3053 83.4665 51.141 81.5743 52.2826 79.956C55.579 75.268 61.3565 74.5988 65.7652 78.2825C66.7937 79.1658 67.725 80.2582 69.0446 81.5868ZM200.224 135.877C201.289 136.229 202.204 136.698 203.165 136.801C204.28 136.926 205.427 136.643 206.561 136.678C212.288 136.892 216.752 134.321 220.402 130.138C223.568 126.518 223.639 123.622 220.841 119.632C220.103 118.571 219.24 117.612 218.477 116.567C217.807 115.641 217.096 114.721 216.584 113.702C215.342 111.197 216.152 109.132 218.72 108.175C219.782 107.782 220.931 107.638 222.024 107.295C223.247 106.916 224.463 106.513 225.643 106.002C226.98 105.423 227.575 104.283 227.331 102.849C227.139 101.727 226.875 100.579 226.37 99.5767C225.61 98.0405 224.627 96.6103 223.71 95.1581C222.801 93.698 221.809 92.292 220.933 90.8087C219.7 88.7136 219.875 86.6895 221.488 84.8355C222.244 83.9721 223.054 83.1599 223.762 82.2537C225.854 79.5747 225.973 76.6885 224.341 73.7919C223.65 72.5613 222.687 71.4513 221.713 70.4145C219.649 68.1973 217.184 66.4887 214.548 65.011C213.674 64.5268 212.749 64.1225 211.919 63.5662C210.535 62.6446 210.405 61.1655 211.574 59.8841C212.057 59.354 212.665 58.9599 213.163 58.4469C215.546 55.9839 215.946 53.6244 214.228 50.6262C213.461 49.2863 212.389 48.0492 211.253 46.998C207.094 43.1601 202.31 40.3791 196.853 38.8415C192.407 37.5886 192.368 37.5543 192.327 32.7374C192.302 29.1904 190.927 26.361 188.29 24.0562C185.638 21.7261 182.576 20.1337 179.174 19.5763C174.217 18.7622 169.447 19.1675 165.867 23.4431C165.688 23.6655 165.454 23.8448 165.251 24.0417C164.57 24.6787 163.697 25.0134 162.93 24.4843C162.425 24.1371 162.089 23.3626 161.936 22.7179C161.775 22.0401 161.926 21.2925 161.946 20.5726C162.004 17.3892 160.515 14.9731 157.931 13.4237C156.25 12.4169 154.313 11.7442 152.408 11.2693C149.339 10.5037 146.183 10.7174 143.039 10.8415C138.757 11.0117 134.99 12.3402 131.593 15.0178C127.46 18.273 126.948 18.0894 124.247 13.4481C121.843 9.31776 119.337 8.05795 114.632 8.88335C113.113 9.15219 111.553 9.63237 110.225 10.4C105.678 13.0413 102.135 16.7533 99.7451 21.4926C98.8403 23.2839 98.1052 25.0899 99.0359 27.2469C99.6016 28.5627 98.5718 29.8086 97.1538 29.9749C96.5914 30.0433 96.0201 29.9229 95.4515 29.9419C92.3234 30.0666 89.1779 30.0105 86.0886 30.3906C82.1843 30.8703 78.7136 32.5132 75.8466 35.3259C72.9376 38.178 72.1196 41.7088 72.5932 45.617C72.8434 47.7477 74.081 49.3106 75.8627 50.4359C77.3751 51.3952 78.792 51.0487 80.2981 50.2798C81.1421 49.8539 82.2101 49.715 83.1669 49.7274C84.0265 49.7361 84.9238 50.2376 85.041 51.1921C85.1142 51.8173 84.857 52.5935 84.5034 53.1367C83.6752 54.415 82.3695 55.0361 80.8954 55.1838C79.8451 55.2824 78.9645 55.6087 78.2833 56.4422C75.7536 59.5547 74.1729 63.0887 74.4137 67.1435C74.6646 71.3544 76.5799 73.2219 79.8141 73.9202C81.9701 74.3885 84.1157 74.496 86.0996 73.5408C88.0093 72.6156 89.7999 71.4154 91.5963 70.2729C92.4363 69.7403 93.139 68.9813 93.9786 68.4568C95.2172 67.6858 96.7576 68.5479 96.7013 70.0035C96.6574 71.1401 96.4664 72.3038 96.1324 73.3883C95.3237 76.0513 95.1611 78.7884 95.291 81.5123C95.5805 87.4526 99.5451 90.6606 105.354 89.8123C105.639 89.7742 105.917 89.7195 106.188 89.6399C110.364 88.4419 114.266 86.7665 117.072 83.2062C117.337 82.8724 117.543 82.3563 117.88 82.2383C118.505 82.0168 119.335 81.7622 119.844 82.0194C120.329 82.2593 120.727 83.1017 120.784 83.7182C120.848 84.3839 120.415 85.0879 120.315 85.7883C120.078 87.4908 119.663 89.2108 119.752 90.9013C120.121 98.3515 125.613 102.118 132.493 99.5915C134.879 98.7174 137.084 97.3121 139.36 96.1226C139.99 95.7948 140.545 95.2676 141.202 95.0637C141.687 94.9104 142.49 94.9169 142.786 95.2232C143.215 95.6656 143.462 96.4286 143.518 97.0777C143.562 97.6036 143.136 98.144 143.025 98.6966C142.692 100.379 142.205 102.072 142.156 103.765C142.022 108.911 144.645 111.772 149.766 112.347C152.383 112.645 154.879 112.282 157.209 110.98C158.212 110.421 159.163 109.746 160.217 109.352C160.785 109.145 161.731 109.214 162.155 109.575C162.587 109.943 162.732 110.825 162.722 111.48C162.72 112.176 162.32 112.857 162.22 113.565C161.954 115.414 161.55 117.266 161.575 119.117C161.629 122.977 162.873 126.481 165.554 129.311C168.422 132.346 173.198 132.612 176.431 129.978C177.202 129.344 177.794 128.499 178.55 127.848C179.774 126.807 181.366 127.179 182.112 128.666C182.496 129.434 182.698 130.285 183.066 131.061C183.673 132.362 184.212 133.718 185.003 134.887C187.436 138.461 191.586 139.596 195.578 137.9C197.168 137.274 198.713 136.555 200.224 135.877ZM76.738 76.8969C71.7926 83.1097 68.1459 90.7733 66.3184 98.3842C63.7083 109.241 62.6655 120.264 63.3304 131.395C63.9218 141.278 66.1911 150.775 71.4678 159.283C76.0417 166.666 81.5105 173.143 88.7894 178.125C95.9814 183.046 103.586 186.747 112.038 188.663C119.573 190.379 127.187 191.287 134.924 191.562C143.236 191.859 151.102 190.247 158.661 186.936C167.433 183.09 174.83 177.275 181.425 170.348C185.788 165.767 189.467 160.627 193.027 155.425C196.036 151.037 198.617 146.379 200.61 141.419C200.843 140.839 201.269 140.102 200.221 139.513C199.332 140.06 198.383 140.678 197.396 141.238C195.746 142.173 193.985 142.613 192.064 142.555C187.592 142.407 184.139 140.447 181.679 136.707C180.898 135.514 180.233 134.252 179.426 132.87C178.457 133.397 177.611 133.864 176.75 134.314C173.951 135.794 171.09 135.938 168.04 135.091C164.621 134.14 162.322 131.905 160.61 128.981C158.845 125.965 157.827 122.699 157.868 119.13C157.881 117.935 158.404 116.595 157.519 115.546C155.24 115.744 153.132 116.129 151.025 116.089C142.878 115.921 139.006 112.217 138.257 104.089C138.19 103.317 138.025 102.557 137.881 101.651C135.84 102.399 134.146 103.218 132.361 103.632C124.625 105.446 119.526 102.415 116.98 95.6586C116.583 94.5868 116.401 93.4415 116.119 92.325C115.95 91.6715 115.78 91.018 115.541 90.067C113.842 90.7956 112.432 91.3963 111.021 92.005C107.811 93.4042 104.511 93.9972 100.995 93.4518C97.4708 92.9061 94.9732 90.9915 93.266 87.9364C91.9762 85.6263 91.4736 83.1009 91.5514 80.4587C91.5943 78.929 91.6045 77.4062 91.6388 75.0489C86.6762 78.141 81.881 78.7909 76.738 76.8969ZM175.22 294.537C175.215 294.25 175.292 293.926 175.188 293.692C171.91 286.351 168.625 279.001 165.29 271.682C164.901 270.831 164.223 270.117 163.876 269.637C159.356 270.732 155.256 272.088 151.054 272.687C135.531 274.912 120.026 273.707 104.548 272.011C101.874 271.719 99.2124 271.322 96.347 270.949C95.4081 272.78 94.534 274.408 93.7233 276.072C91.7835 280.084 89.8757 284.105 87.9599 288.125C87.1564 289.814 86.3049 291.484 85.5892 293.209C85.1593 294.257 84.7913 295.381 85.6488 296.913C89.1245 298.079 92.8596 299.46 96.6696 300.582C100.809 301.799 101.444 301.528 103.42 297.608C105.679 293.118 107.706 288.52 109.83 283.959C110.131 283.307 110.344 282.619 110.669 281.977C111.538 280.274 112.824 279.734 114.517 280.234C116.562 280.829 118.682 281.189 120.786 281.533C124.155 282.089 127.554 282.515 130.932 283.055C137.117 284.039 143.272 285.358 149.596 284.808C150.304 284.746 151.023 284.839 151.735 284.891C154.397 285.059 154.886 285.422 155.664 287.95C156.263 289.873 156.747 291.833 157.388 293.733C157.89 295.227 158.465 296.723 159.19 298.118C160.246 300.174 161.517 300.665 163.798 300.188C166.507 299.589 172.668 296.559 175.22 294.537ZM94.6586 249.362C96.6655 251.167 99.0087 251.201 101.229 251.483C110.835 252.698 120.444 253.872 130.054 254.989C141.49 256.315 152.736 255.636 163.654 251.669C163.351 247.129 161.345 238.6 160.011 235.968C156.777 236.507 153.592 237.276 150.37 237.512C146.099 237.822 141.869 238.33 137.696 239.266C134.741 239.93 131.764 239.937 128.775 239.822C119.785 239.441 110.904 238.328 102.233 235.79C100.46 235.271 98.6852 234.809 96.4998 235.102C95.6594 239.843 94.6572 244.571 94.6586 249.362ZM97.2732 230.414C97.8142 230.689 98.1612 230.948 98.5469 231.045C107.094 233.235 115.681 235.229 124.523 235.874C129.514 236.239 134.424 236.183 139.373 235.121C143.111 234.324 146.976 234.039 150.799 233.761C153.11 233.589 155.309 233.15 157.442 232.331C158.175 232.048 158.79 231.442 159.482 230.977C158.524 227.197 157.985 223.524 156.576 220.104C150.846 220.177 145.319 220.234 139.783 220.323C138.93 220.339 138.081 220.486 137.24 220.634C131.002 221.662 124.776 221.544 118.531 220.672C112.214 219.781 105.873 219.077 99.1151 218.234C98.2439 222.303 97.5531 226.322 97.2732 230.414ZM93.1495 265.944C94.7874 266.384 96.1324 266.846 97.5097 267.104C104.806 268.475 112.187 269.153 119.592 269.62C129.569 270.26 139.547 270.482 149.481 269.113C152.433 268.703 155.416 268.147 158.22 267.166C165.029 264.784 165.773 265.067 164.623 256.628C164.611 256.505 164.461 256.401 164.237 256.122C162.797 256.009 161.335 256.477 159.843 256.886C154.03 258.471 148.082 259.355 142.09 259.27C136.106 259.195 130.12 258.75 124.165 258.119C115.941 257.252 107.752 256.076 99.5512 255.005C97.7431 254.771 95.9553 254.432 93.9802 254.11C93.2792 257.973 93.0556 261.658 93.1495 265.944ZM246.194 150.225C242.7 151.211 241.105 152.591 239.861 155.606C239.53 156.387 239.327 157.248 238.909 157.977C238.309 159.026 236.582 158.984 236.081 157.884C235.686 156.984 235.572 155.964 235.251 155.026C234.404 152.594 233.533 150.153 230.8 148.86C230.284 149.405 229.707 149.849 229.368 150.434C228.414 152.051 227.907 153.825 227.647 155.715C226.605 163.152 229.729 169.431 232.91 175.712C233.098 176.088 233.418 176.403 233.698 176.726C236.292 179.725 239.475 181.74 243.249 182.958C245.428 183.657 247.133 183.428 248.633 181.545C248.433 181.046 248.302 180.468 248.003 179.997C247.468 179.15 246.783 178.402 246.256 177.555C245.584 176.473 245.994 175.104 247.154 174.691C248.084 174.358 249.108 174.308 250.044 174.008C251.35 173.584 252.954 173.875 253.943 172.414C253.66 171.126 252.523 170.738 251.526 170.298C250.353 169.786 249.065 169.54 247.918 168.979C247.361 168.704 246.803 168.044 246.631 167.439C246.359 166.52 246.987 165.799 247.775 165.354C248.646 164.856 249.554 164.44 250.432 163.966C251.982 163.134 253.259 161.987 253.987 160.361C254.387 159.468 254.694 158.448 253.495 157.558C252.784 157.702 251.913 157.775 251.139 158.073C249.813 158.587 248.575 159.35 247.234 159.814C246.659 160.013 245.793 159.946 245.278 159.64C244.462 159.141 244.418 158.182 244.767 157.327C245.135 156.399 245.672 155.536 246.065 154.609C246.627 153.288 247.077 151.921 246.194 150.225ZM21.408 116.016C21.0911 118.337 20.9755 118.39 21.525 119.705C22.4008 121.811 23.4169 123.857 24.4165 125.91C24.8378 126.762 24.9526 127.569 24.2522 128.271C23.5773 128.941 22.7793 129.016 21.9129 128.557C21.1576 128.159 20.4054 127.68 19.5936 127.484C18.3641 127.183 17.0825 126.97 15.826 126.946C14.5452 126.921 13.7954 127.85 13.314 128.97C12.8333 130.073 13.3347 130.952 14.0861 131.661C14.6964 132.241 15.4421 132.68 16.1456 133.157C16.6121 133.47 17.1553 133.688 17.5549 134.055C18.409 134.834 17.9753 136.61 16.8545 136.854C15.6271 137.126 14.2902 137.082 13.1525 137.554C12.5261 137.808 11.9445 138.793 11.827 139.525C11.7522 139.989 12.4774 140.746 13.0146 141.119C14.5083 142.143 16.2443 142.145 17.9573 141.9C18.7893 141.785 19.5833 141.39 20.4103 141.192C21.27 140.988 22.228 140.968 22.6724 141.853C22.951 142.412 22.9605 143.215 22.8224 143.849C22.6747 144.523 22.1569 145.117 21.9122 145.779C21.5858 146.667 21.3713 147.601 21.0816 148.589C21.7304 148.802 22.1263 149.055 22.508 149.045C27.9422 148.862 32.8988 144.877 34.2409 139.54C34.4701 138.648 34.6811 137.805 35.5216 137.469C37.3013 136.76 38.1056 135.259 38.7602 133.647C40.0893 130.324 41.4829 127.012 42.5799 123.607C43.0877 122.013 43.0597 120.219 43.0853 118.508C43.1033 117.411 42.1725 116.728 41.0774 116.727C37.873 116.726 34.9374 119.217 34.5069 122.378C34.3934 123.217 34.53 124.09 34.5049 124.949C34.485 125.882 34.1708 126.664 33.1501 126.837C32.1786 126.996 31.5103 126.446 31.0624 125.651C30.6369 124.906 30.3688 124.077 29.9352 123.331C27.9556 119.979 24.6336 117.148 21.408 116.016ZM154.265 207.272C152.644 207.447 151.092 207.501 149.588 207.812C146.89 208.354 144.226 208.218 141.52 207.917C139.266 207.666 136.981 207.611 134.717 207.622C124.176 207.697 113.628 207.969 103.323 205.073C102.713 204.902 102.009 205.079 101.205 205.097C100.756 208.102 99.953 210.831 99.9838 213.813C102.036 214.867 104.125 215.177 106.241 215.414C112.041 216.064 117.851 216.641 123.64 217.364C127.499 217.841 131.312 217.415 135.144 217.146C139.398 216.844 143.658 216.607 147.917 216.403C149.762 216.311 151.622 216.456 153.468 216.348C154.248 216.304 155.004 215.866 155.957 215.543C155.377 212.703 155.524 209.966 154.265 207.272ZM153.503 203.058C152.734 199.875 151.982 196.881 150.626 193.954C134.769 196.822 119.407 194.664 104.112 190.551C102.533 193.831 102.673 197.12 102.144 200.318C104.575 201.854 107.127 202.165 109.608 202.622C116.921 203.985 124.31 204.025 131.722 203.878C135.692 203.802 139.673 204.062 143.639 204.298C146.941 204.499 150.127 204.147 153.503 203.058ZM59.4302 112.253C59.7105 111.928 59.9611 111.741 60.0678 111.499C60.2372 111.105 60.3508 110.683 60.4077 110.26C61.3525 102.819 62.8596 95.5234 65.5251 88.4772C66.8896 84.8693 64.7775 81.1679 61.0834 79.985C59.1203 79.3522 57.4258 79.7454 55.9971 81.2379C54.4752 82.8333 53.5806 84.7805 52.9803 86.8784C52.0987 89.9562 51.887 93.1256 52.0565 96.2932C52.2625 100.199 53.1053 103.999 54.8842 107.507C55.9093 109.529 57.0734 111.523 59.4302 112.253ZM38.6531 313.719C38.6452 313.923 38.626 314.209 38.623 314.496C38.5773 316.517 39.2584 318.205 41.0779 319.193C42.8735 320.171 44.628 319.903 46.312 318.732C50.0895 316.077 52.7135 312.624 53.7589 308.038C54.0809 306.634 54.3141 305.218 54.6763 303.823C55.0198 302.493 54.9366 301.286 54.1874 300.103C53.6523 299.255 53.1839 298.36 52.7651 297.443C52.1362 296.084 51.0753 295.617 49.6627 295.645C47.8441 295.681 46.3293 296.253 45.2775 297.858C42.5877 301.964 40.4633 306.345 39.12 311.083C38.8772 311.909 38.8109 312.783 38.6531 313.719ZM194.154 160.89C200.36 160.679 205.323 159.258 209.798 156.18C211.59 154.947 213.007 153.339 214.086 151.44C214.504 150.703 214.868 149.89 215.07 149.07C215.805 146.011 214.846 143.976 211.942 142.906C209.687 142.065 207.309 141.662 204.746 141.874C203.165 144.99 201.707 148.087 200.042 151.069C198.316 154.18 196.39 157.185 194.154 160.89ZM211.835 306.198C209.731 306.698 209.086 307.852 209.274 309.481C209.886 314.647 211.243 319.622 213.372 324.356C213.708 325.114 214.306 325.784 214.908 326.372C215.643 327.097 216.948 327.114 217.618 326.362C218.271 325.634 218.993 324.794 219.214 323.894C219.627 322.239 219.8 320.501 219.882 318.793C220.037 315.613 218.992 312.87 216.626 310.682C215.06 309.23 213.502 307.769 211.835 306.198Z" fill="#6B4434"/>
<path fill-rule="evenodd" clip-rule="evenodd" d="M99.6857 145.353C100.004 142.376 100.257 139.388 100.696 136.424C100.763 135.96 101.781 135.221 102.232 135.304C109.934 136.7 117.78 137.29 125.336 139.498C128.072 140.3 130.798 141.118 133.515 141.968C134.461 142.267 135.414 142.598 136.305 143.034C139.474 144.59 140.369 146.401 138.961 149.664C137.02 154.134 134.99 158.6 132.516 162.78C128.584 169.425 122.503 171.851 114.984 170.791C108.779 169.92 102.526 164.2 100.966 157.768C99.9707 153.717 99.5471 149.565 99.6857 145.353ZM135.558 147.034C134.828 146.629 134.253 146.19 133.604 145.968C124.678 142.871 115.536 140.765 106.137 139.845C104.739 139.709 104.011 140.27 103.863 141.788C103.402 146.381 103.387 150.958 104.265 155.529C105.277 160.817 108.448 164.224 113.118 166.37C116.929 168.114 123.972 167.862 127.875 162.797C128.832 161.556 129.806 160.283 130.525 158.886C132.165 155.699 133.678 152.44 135.183 149.182C135.466 148.579 135.431 147.824 135.558 147.034Z" fill="#6B4434"/>
<path fill-rule="evenodd" clip-rule="evenodd" d="M135.558 147.035C135.43 147.825 135.466 148.579 135.183 149.183C133.678 152.441 132.165 155.691 130.524 158.887C129.805 160.276 128.831 161.549 127.875 162.798C123.971 167.863 116.92 168.123 113.118 166.371C108.447 164.225 105.277 160.818 104.265 155.53C103.387 150.959 103.402 146.382 103.863 141.789C104.019 140.272 104.738 139.71 106.137 139.846C115.536 140.766 124.678 142.872 133.604 145.969C134.252 146.199 134.827 146.63 135.558 147.035Z" fill="#FFF2E1"/>
<path fill-rule="evenodd" clip-rule="evenodd" d="M96.7711 115.8C96.6355 119.725 93.8958 122.813 90.5184 123.092C88.2804 123.276 86.6375 122.336 85.5852 120.387C84.1691 117.778 85.0941 112.736 87.3593 110.801C89.1214 109.288 91.2137 108.886 93.3748 109.641C95.2961 110.305 96.2567 111.898 96.5696 113.876C96.6721 114.584 96.7172 115.306 96.7711 115.8Z" fill="#6B4434"/>
<path fill-rule="evenodd" clip-rule="evenodd" d="M152.227 138.262C152.585 135.287 155.312 133.378 158.489 133.869C161.497 134.337 163.744 137.684 163.268 140.982C162.923 143.409 159.494 145.848 156.852 145.574C154.194 145.299 151.824 141.555 152.227 138.262Z" fill="#6B4434"/>
</svg>
