<svg width="209" height="331" viewBox="0 0 209 331" fill="none" xmlns="http://www.w3.org/2000/svg">
<path fill-rule="evenodd" clip-rule="evenodd" d="M132.204 91.4893C131.038 93.2248 130.127 94.822 128.986 96.2258C127.679 97.8314 126.318 99.462 124.717 100.746C121.198 103.561 117.201 104.131 113.008 102.4C107.674 100.2 103.825 96.4439 101.693 90.9887C101.299 89.9794 100.94 88.9606 100.444 87.6081C99.4816 88.6057 98.7304 89.3561 98.0154 90.1249C95.5535 92.7564 92.7724 94.9204 89.3578 96.1281C88.2195 96.5283 87.0161 96.8 85.8214 97.001C81.9208 97.6482 79.5446 95.2985 78.4137 92.8704C78.0088 91.9953 77.7114 91.0701 77.393 90.2377C76.4502 89.8937 76.2339 90.6395 75.8601 91.0391C73.9326 93.0907 72.1403 95.2796 70.0914 97.1928C67.9257 99.22 65.3554 100.66 62.393 101.209C61.6728 101.34 60.9456 101.471 60.2182 101.504C55.8674 101.701 53.399 99.9891 51.5405 95.3206C51.1562 96.0508 50.764 96.5781 50.5918 97.1662C48.8172 103.094 48.0668 109.149 48.0928 115.364C48.1439 127.309 52.0614 138.049 57.7685 148.263C59.2014 150.83 60.7297 153.369 62.4348 155.761C68.9265 164.83 77.7439 170.834 87.9374 174.849C90.8507 175.994 93.961 176.795 97.0606 177.26C101.025 177.864 105.062 178.21 109.068 178.249C121.38 178.36 132.963 175.473 143.738 169.333C149.629 165.977 155.027 161.963 159.618 156.998C166.545 149.496 172.445 141.248 175.925 131.468C176.293 130.431 176.576 129.364 176.852 128.298C176.895 128.12 176.696 127.875 176.51 127.425C175.879 127.542 175.175 127.602 174.508 127.805C172.435 128.436 170.587 127.893 169.055 126.526C167.694 125.315 166.413 123.965 165.345 122.486C162.606 118.697 160.379 114.603 158.459 110.325C157.978 109.259 157.852 107.928 156.493 107.124C155.903 107.897 155.413 108.79 154.694 109.411C153.687 110.272 152.57 111.063 151.39 111.642C149.344 112.65 147.348 112.265 145.533 110.933C143.733 109.607 142.348 107.879 141.187 105.986C138.677 101.913 136.226 97.7936 133.736 93.7052C133.287 92.9947 132.787 92.3372 132.204 91.4893ZM97.9372 143.612C97.9164 143.614 97.9026 143.615 97.8819 143.617C97.9901 145.089 97.9814 146.577 98.2338 148.025C98.6653 150.491 101.602 153.185 104.04 153.537C107.785 154.08 111.775 151.525 112.685 147.83C113.026 146.429 112.964 144.925 113.094 143.47C113.161 142.686 113.426 142.028 114.272 141.818C115.058 141.626 115.978 142.232 116.203 143.113C116.328 143.588 116.399 144.081 116.414 144.571C116.649 150.321 113.75 154.48 108.294 156.274C103.169 157.952 97.3343 155.172 95.4503 150.063C94.2182 146.73 94.5826 143.272 95.033 139.849C95.1269 139.141 96.1177 138.436 96.6593 138.711C97.1499 138.956 97.7509 139.472 97.8273 139.944C98.0054 141.137 97.9165 142.386 97.9372 143.612ZM129.827 134.426C129.599 131.601 131.309 129.804 134.486 129.526C137.538 129.258 139.879 131.119 140.067 133.968C140.245 136.663 138.251 139.049 135.634 139.286C132.72 139.544 130.06 137.313 129.827 134.426ZM76.1173 122.427C75.8697 120.382 76.7812 118.505 78.3681 117.776C81.0787 116.544 84.9205 118.216 85.9152 121.061C86.6117 123.066 85.7322 125.475 83.917 126.5C80.8413 128.251 76.5544 126.008 76.1173 122.427Z" fill="#FFF7F9"/>
<path fill-rule="evenodd" clip-rule="evenodd" d="M158.361 72.7779C155.033 73.4599 152.491 72.3574 150.211 70.5619C147.902 68.7474 145.688 66.8067 143.411 64.9548C142.465 64.1831 141.511 63.4048 140.477 62.7658C139.559 62.1954 138.569 61.8689 137.402 61.7941C135.6 61.6752 133.795 61.2338 132.042 60.7324C130.011 60.1463 128.174 59.181 127.42 57.2512C123.229 56.4886 119.277 55.7855 115.324 55.0544C112.794 54.5895 110.25 54.4836 107.683 54.4636C95.4428 54.3754 84.3525 58.1103 74.2378 64.8111C65.6082 70.5315 59.0341 78.2115 54.4186 87.5705C53.9588 88.5028 53.8225 89.39 54.1197 90.4064C54.5728 91.9376 54.869 93.5084 55.3153 95.04C56.0013 97.3748 57.1481 98.2229 59.5204 98.2504C61.5168 98.2707 63.4707 97.9011 65.1039 96.7625C66.9949 95.4434 68.8787 94.0265 70.4734 92.3645C72.766 89.9841 74.8561 87.4013 76.3884 84.4177C76.662 83.8852 77.0494 83.3863 77.4774 82.9686C77.9375 82.5135 79.1507 82.7532 79.4235 83.3435C79.6793 83.8928 79.8755 84.4817 79.9819 85.0773C80.2943 86.7732 80.4561 88.5013 80.8568 90.1697C81.6067 93.2786 83.5257 94.4202 86.5813 93.6252C91.5741 92.3285 95.1594 89.0943 97.9948 84.9265C98.7475 83.8181 99.3016 82.5631 99.9662 81.3911C100.207 80.9733 100.467 80.547 100.797 80.2138C101.379 79.6163 102.702 79.9391 102.922 80.7578C103.113 81.4593 103.133 82.2086 103.256 82.9293C103.534 84.6278 103.716 86.3474 104.13 88.0077C105.486 93.4012 108.858 97.1084 113.862 99.2632C117.149 100.682 120.309 100.258 123.119 97.9237C126.008 95.5201 127.933 92.4021 129.536 89.0485C129.903 88.2775 130.19 87.4493 130.637 86.7284C131.152 85.8833 132.572 85.82 133.193 86.602C133.722 87.2714 134.126 88.0413 134.563 88.7808C137.526 93.7322 140.437 98.7226 143.468 103.634C144.36 105.083 145.461 106.447 146.655 107.657C148.188 109.22 149.827 109.204 151.579 107.888C153.002 106.821 153.786 105.289 154.556 103.745C155.046 102.761 155.463 101.719 156.056 100.798C156.724 99.7665 158.242 99.9977 158.702 101.149C158.925 101.715 159.046 102.331 159.208 102.922C161.012 109.686 164.471 115.604 168.373 121.307C168.715 121.808 169.145 122.26 169.567 122.706C171.855 125.09 174.788 125.272 177.389 123.206C178.256 122.517 178.378 121.533 178.417 120.547C178.581 116.353 178.558 112.166 177.802 108.026C176.259 99.5238 172.773 91.8115 167.852 84.8161C164.978 80.707 161.654 76.919 158.361 72.7779Z" fill="#F5C2E1"/>
<path fill-rule="evenodd" clip-rule="evenodd" d="M115.942 181.359C107.72 181.668 99.8163 181.468 91.9767 179.594C90.0519 182.628 88.9145 185.877 87.5094 188.984C80.2634 205.015 73.975 221.402 69.5565 238.451C70.7544 240.846 72.9901 241.663 75.1702 242.385C81.4688 244.479 87.9087 245.657 94.6064 245.237C100.937 244.837 107.326 244.848 113.494 243.183C119.261 241.632 124.969 239.848 130.658 238.008C132.254 237.49 133.724 236.504 135.182 235.624C136.293 234.952 136.449 234.238 135.924 233.141C135.66 232.585 135.331 232.069 135.02 231.538C130.5 223.748 127.094 215.44 124.067 206.978C121.416 199.568 118.894 192.107 117.023 184.443C116.781 183.507 116.381 182.611 115.942 181.359Z" fill="#FF92CD"/>
<path fill-rule="evenodd" clip-rule="evenodd" d="M146.588 250.27C145.389 247.679 141.126 241.126 138.406 237.686C137.949 237.902 137.407 238.097 136.928 238.392C134.224 240.094 131.319 241.32 128.291 242.31C120.866 244.748 113.41 247.048 105.594 247.762C99.4072 248.326 93.1921 248.787 86.9887 248.272C81.1281 247.788 75.4791 246.305 70.1698 243.675C69.6505 243.419 69.0771 243.279 68.3781 243.036C66.8549 247.373 66.5529 251.585 67.1619 255.897C67.3513 257.244 68.0825 258.207 69.2657 258.702C70.6068 259.262 72 259.776 73.4193 260.078C79.2816 261.341 85.2121 261.925 91.2054 261.663C95.8338 261.46 100.455 261.159 105.078 260.886C114.38 260.336 123.393 258.229 132.273 255.535C136.462 254.263 140.566 252.703 144.699 251.238C145.364 251.021 145.966 250.604 146.588 250.27Z" fill="#FFDBEE"/>
<path fill-rule="evenodd" clip-rule="evenodd" d="M132.951 45.9857C135.321 46.6379 137.761 47.3058 140.393 48.0227C146.64 43.3632 152.393 38.1298 156.188 31.0419C158.933 25.9195 159.291 20.49 157.564 14.9557C157.201 13.8107 156.579 12.7132 155.906 11.7036C155.203 10.6401 153.966 10.5565 153.084 11.5061C152.176 12.4856 151.302 13.5538 150.665 14.7168C149.665 16.5381 148.877 18.4841 148.008 20.373C147.648 21.1505 147.413 22.0169 146.913 22.6855C146.609 23.087 145.856 23.4306 145.384 23.3463C144.912 23.2621 144.375 22.6774 144.165 22.1808C143.887 21.5208 143.94 20.7309 143.79 20.0123C143.234 17.3662 142.699 14.7185 142.075 12.0914C141.732 10.6503 141.106 9.31448 139.831 8.04782C139.463 8.52421 138.99 8.89612 138.844 9.37005C138.386 10.8986 138.056 12.4597 137.676 14.0036C137.532 14.5897 137.482 15.2389 137.2 15.751C136.992 16.1313 136.455 16.5921 136.099 16.5694C135.569 16.5386 134.79 16.2456 134.585 15.8257C133.989 14.628 133.669 13.2975 133.167 12.0437C132.912 11.4101 132.495 10.8515 132.05 10.0847C130.893 12.1212 130.887 14.1214 130.673 16.0388C130.455 17.9916 130.379 19.976 130.44 21.9362C130.695 29.9514 131.302 37.9195 132.951 45.9857Z" fill="#F5C2E1"/>
<path fill-rule="evenodd" clip-rule="evenodd" d="M192.753 188.781C192.238 186.981 191.017 186.342 189.906 185.603C189.299 185.199 188.617 184.899 188.049 184.45C187.229 183.795 187.385 182.415 188.34 181.979C189.107 181.635 189.956 181.46 190.756 181.183C191.671 180.869 192.601 180.569 193.483 180.173C194.209 179.846 194.609 179.234 194.394 178.387C194.198 177.608 193.705 177.049 192.918 176.939C192.328 176.856 191.713 177 191.116 177.002C190.351 177.003 189.662 176.808 189.339 176.004C189.041 175.261 189.381 174.499 190.285 173.843C190.583 173.631 190.934 173.493 191.231 173.282C193.848 171.439 194.226 170.246 193.327 166.516C191.848 166.17 190.528 166.928 189.247 167.472C187.232 168.33 185.318 169.433 183.336 170.366C182.402 170.807 181.784 171.478 181.257 172.345C180.854 173.006 180.199 173.364 179.383 173.136C178.581 172.908 178.177 172.243 178.102 171.505C178.03 170.809 178.269 170.083 178.279 169.366C178.289 168.278 178.332 167.166 178.149 166.092C177.978 165.087 177.258 164.369 176.347 163.896C175.249 163.325 174.101 163.691 173.63 164.848C173.353 165.522 173.107 166.242 173.028 166.963C172.75 169.524 172.536 172.094 172.342 174.662C172.28 175.516 172.463 176.4 172.323 177.239C171.55 181.934 172.722 186.254 174.785 190.388C176.897 194.638 180.308 196.497 185.254 196.172C186.144 194.752 185.443 193.351 185.091 191.967C184.914 191.264 184.505 190.614 184.335 189.911C184.078 188.87 185.098 187.897 186.088 188.223C186.772 188.453 187.4 188.869 188.08 189.128C189.604 189.716 191.113 189.738 192.753 188.781Z" fill="#FFF7F9"/>
<path fill-rule="evenodd" clip-rule="evenodd" d="M169.422 150.433C170.668 150.733 171.373 151.067 172.074 151.043C177.433 150.856 182.565 149.745 186.523 145.817C190.793 141.584 192.658 136.415 191.197 130.349C190.458 127.295 188.342 125.551 185.373 124.887C183.013 124.36 181.3 125.357 180.515 127.633C179.994 129.145 179.593 130.691 179.072 132.203C177.201 137.576 174.549 142.544 171.421 147.267C170.827 148.167 170.269 149.086 169.422 150.433Z" fill="#FFF7F9"/>
<path fill-rule="evenodd" clip-rule="evenodd" d="M30.7771 143.347C29.5143 143.567 29.2436 144.422 29.2232 145.28C29.1922 146.748 29.2935 148.222 29.4151 149.686C29.5877 151.75 29.3684 152.644 28.4369 152.832C27.0463 153.111 26.5894 152.001 25.9596 151.093C25.3378 150.199 24.675 149.315 23.8901 148.566C23.382 148.085 22.5601 147.683 21.9231 148.284C21.5462 148.642 21.246 149.38 21.3244 149.879C21.5164 151.072 21.9285 152.234 22.312 153.385C22.5003 153.96 23.0035 154.47 23.0519 155.035C23.0973 155.558 22.8821 156.317 22.5001 156.605C22.132 156.892 21.2673 156.949 20.8804 156.698C19.7641 155.98 18.8174 154.921 17.3287 155.095C16.7703 155.157 16.238 155.386 15.7948 155.503C15.5406 156.49 16.0633 156.887 16.5394 157.216C17.0303 157.559 17.6343 157.738 18.1572 158.043C19.6755 158.934 19.7389 160.27 18.3026 161.155C17.6843 161.538 16.9801 161.793 16.3921 162.209C15.9164 162.546 15.5488 163.029 14.9277 163.658C15.5236 164.105 15.919 164.567 16.4193 164.754C18.9715 165.715 21.6322 165.883 24.3309 165.718C25.7773 165.631 27.2227 165.531 28.672 165.578C31.6332 165.674 34.2228 164.97 36.074 162.447C37.8808 159.983 39.7466 157.564 41.4876 155.056C42.2546 153.954 42.778 152.659 42.6117 151.247C42.5586 150.809 42.2753 150.17 41.947 150.054C41.4546 149.88 40.6045 149.852 40.3071 150.155C39.2989 151.191 38.4339 152.378 37.5752 153.557C36.938 154.439 36.4988 155.651 35.1064 155.242C33.9625 154.906 33.9703 153.783 33.857 152.809C33.5547 150.116 33.136 147.445 31.9468 144.979C31.6379 144.371 31.1406 143.846 30.7771 143.347Z" fill="#FFF7F9"/>
<path fill-rule="evenodd" clip-rule="evenodd" d="M45.3087 124.404C45.2206 122.544 45.1935 121.325 45.1048 120.118C44.5843 113.322 44.9866 106.598 46.5 99.9534C46.578 99.5967 46.6624 99.2326 46.7756 98.8804C47.6243 96.2423 46.1655 94.3648 44.1909 92.9395C42.5612 91.7624 39.6509 91.6977 37.7502 93.4525C35.3938 95.6272 33.937 98.2192 33.8788 101.493C33.734 108.977 36.4938 115.41 40.9717 121.196C41.563 121.959 42.3653 122.566 43.1262 123.177C43.5633 123.544 44.1279 123.755 45.3087 124.404Z" fill="#FFF7F9"/>
<path fill-rule="evenodd" clip-rule="evenodd" d="M26.4793 263.197C25.7608 265.054 25.9454 266.808 26.616 268.365C29.0941 274.181 32.8982 278.838 38.6334 281.683C38.8426 281.786 39.1053 281.767 39.4645 281.831C40.3255 280.778 40.6818 279.573 40.1984 278.198C38.4901 273.399 36.1556 268.97 32.2587 265.603C31.0859 264.588 29.6106 263.905 28.204 263.209C27.749 262.977 27.0695 263.188 26.4793 263.197Z" fill="#FF92CD"/>
<path fill-rule="evenodd" clip-rule="evenodd" d="M133.289 301.4C132.703 302.791 132.021 304.21 131.491 305.688C130.546 308.34 129.679 311.022 128.799 313.697C128.333 315.121 128.176 316.571 128.563 318.051C128.833 319.083 129.803 319.608 130.815 319.287C132.031 318.902 132.931 318.092 133.671 317.104C136.191 313.745 137.282 309.959 137.111 305.741C137.007 303.293 135.981 301.811 133.289 301.4Z" fill="#FF92CD"/>
<path fill-rule="evenodd" clip-rule="evenodd" d="M128.281 53.5669C129.774 51.8493 130.008 50.218 129.842 48.4201C129.602 45.8206 128.92 43.3522 128.106 40.8935C126.66 36.5382 124.631 32.4787 121.875 28.838C120.781 27.3895 119.453 26.0567 118.01 24.9638C116.222 23.616 114.617 24.093 113.39 26.0294C111.963 28.2754 111.463 30.8385 111.375 33.4202C111.204 38.4709 111.582 43.509 112.297 48.515C112.501 49.9594 113.034 51.0636 114.594 51.4811C119.075 52.6782 123.57 53.6919 128.281 53.5669Z" fill="#FFD152"/>
<path fill-rule="evenodd" clip-rule="evenodd" d="M141.803 59.4617C145.009 62.1288 148.174 64.8059 151.39 67.4231C152.24 68.1108 153.181 68.7216 154.162 69.2031C155.973 70.1002 157.422 69.6769 158.629 68.0297C158.92 67.6362 159.137 67.192 159.37 66.7608C162.094 61.6539 164.33 56.3307 166.058 50.8066C166.598 49.0685 167.203 47.2834 166.307 45.4974C165.084 44.7392 163.853 45.1112 162.667 45.2413C159.205 45.6105 147.561 48.8111 144.086 50.3389C143.762 51.6962 143.403 53.2384 143.015 54.7758C142.641 56.2982 142.232 57.8301 141.803 59.4617Z" fill="#FFD152"/>
<path fill-rule="evenodd" clip-rule="evenodd" d="M131.091 56.628C132.961 57.8645 134.611 58.2754 136.313 58.4578C137.889 58.6215 138.672 58.2056 139.165 56.7727C139.6 55.5124 139.822 54.1768 140.127 52.9403C138.623 50.8276 136.601 50.1707 134.293 49.7877C132.623 51.7569 132.449 54.3099 131.091 56.628Z" fill="#FFD152"/>
<path fill-rule="evenodd" clip-rule="evenodd" d="M147.43 135.8C153.969 135.764 158.956 141.681 158.377 148.081C158.116 150.95 156.747 153.318 154.76 154.946C153.083 156.628 150.803 157.758 148.55 158.115C143.334 158.937 138.565 153.726 137.503 149.02C136.069 142.657 140.704 135.836 147.43 135.8Z" fill="#F8CFDD"/>
<path fill-rule="evenodd" clip-rule="evenodd" d="M53.3915 129.684C53.4236 128.608 53.6362 127.624 53.9864 126.714C54.8852 121.827 59.2184 118.46 64.2189 118.685C69.7775 118.939 75.3981 122.494 75.5114 128.667C75.6414 135.351 69.2515 140.148 62.9766 139.512C58.3697 139.061 53.2506 134.669 53.3915 129.684Z" fill="#F8CFDD"/>
<path fill-rule="evenodd" clip-rule="evenodd" d="M120.216 183.615C122.387 184.218 123.59 185.449 124.874 186.553C128.599 189.751 132.467 192.72 136.797 195.079C140.208 196.939 143.793 197.95 147.647 197.988C155.444 198.063 162.974 196.957 169.799 192.782C170.305 192.478 170.859 192.262 171.483 191.963C172.159 192.832 172.711 193.626 173.355 194.343C176.074 197.383 179.323 199.409 183.498 199.563C184.105 199.588 184.725 199.605 185.324 199.526C187.649 199.199 188.799 198.013 189.031 195.687C189.102 194.959 189.034 194.213 189.034 193.273C189.697 193.119 190.373 192.956 191.05 192.801C191.644 192.666 192.249 192.572 192.827 192.389C196.462 191.249 197.232 189.164 195.186 186.011C194.786 185.395 194.294 184.849 193.733 184.119C194.333 183.675 194.883 183.213 195.481 182.839C197.891 181.313 198.179 179.643 197.258 176.764C196.968 175.859 196.299 175.074 195.711 174.079C196.014 173.278 196.407 172.385 196.686 171.459C197.234 169.651 197.168 167.803 196.755 165.981C196.304 164.001 195.096 163.08 193.076 163.124C191.078 163.167 189.262 163.905 187.488 164.731C185.827 165.493 184.198 166.308 182.654 167.054C181.348 166.589 181.477 165.422 181.096 164.58C180.189 162.563 178.798 161.13 176.627 160.54C174.081 159.851 171.983 160.708 170.883 163.148C170.333 164.36 169.897 165.705 169.772 167.026C169.419 170.82 169.108 174.625 169.062 178.432C169.022 181.852 169.357 185.272 169.54 188.984C166.16 191.599 162.14 193.272 157.752 193.906C154.498 194.372 151.203 194.56 147.914 194.726C144.943 194.876 142.128 194.123 139.431 192.807C135.105 190.7 131.337 187.766 127.639 184.742C126.137 183.513 124.777 182.119 123.166 180.631C124.482 179.727 126.125 179.851 127.539 179.325C129.021 178.78 130.589 178.461 132.096 177.963C133.718 177.429 135.322 176.84 136.901 176.19C138.365 175.59 139.811 174.929 141.239 174.227C142.662 173.532 144.074 172.789 145.455 172.006C146.836 171.223 148.201 170.406 149.527 169.536C150.853 168.666 152.155 167.741 153.418 166.778C154.689 165.814 155.93 164.824 157.131 163.773C158.425 162.646 159.673 161.473 160.905 160.273C162.046 159.157 163.158 158.015 164.218 156.835C165.278 155.662 166.264 154.417 167.223 153.273C175.181 155.441 182.202 153.643 188.216 148.574C193.42 144.189 195.518 138.238 194.729 131.385C194.025 125.325 189.587 121.507 183.481 121.56C183.009 121.567 182.542 121.552 181.812 121.55C181.763 120.88 181.651 120.306 181.685 119.735C182.401 109.353 179.803 99.7435 175.118 90.583C171.894 84.2892 167.736 78.6962 163.015 73.4956C162.357 72.7725 161.713 72.0484 160.918 71.1671C161.306 70.2963 161.636 69.4018 162.075 68.5624C164.593 63.7659 166.78 58.8255 168.493 53.6817C169.034 52.0559 169.488 50.3873 169.83 48.7061C170.024 47.7584 170.039 46.7329 169.913 45.774C169.593 43.3207 168.303 42.041 165.827 41.8245C164.63 41.7167 163.369 41.775 162.191 42.0166C158.734 42.7358 155.3 43.5866 151.848 44.3756C151.39 44.4797 150.914 44.522 149.958 44.663C150.643 43.7772 151.048 43.235 151.468 42.7057C153.592 40.0154 155.934 37.4632 157.809 34.6089C162.128 28.037 162.873 20.874 160.405 13.4226C159.914 11.9434 159.077 10.4828 158.091 9.27872C156.107 6.87165 153.292 6.78544 151.055 8.97196C150.018 9.98903 149.163 11.2171 148.283 12.3909C147.776 13.06 147.373 13.8126 146.751 14.8129C146.34 14.2329 146.004 13.914 145.872 13.5309C145.423 12.259 145.171 10.9024 144.608 9.68108C144.003 8.35065 143.292 7.01395 142.363 5.90402C140.426 3.5846 138.369 3.7721 136.703 6.2671C136.303 6.86514 135.99 7.53381 135.511 8.39025C134.968 7.813 134.602 7.37002 134.186 7.00091C132.246 5.2992 130.272 5.68396 129.188 8.0447C128.679 9.14898 128.239 10.3533 128.091 11.5501C127.713 14.7216 127.37 17.9045 127.285 21.0964C127.218 23.6695 127.548 26.2623 127.689 28.841C127.716 29.4003 127.688 29.9637 127.685 31.241C126.74 30.0129 126.247 29.3688 125.749 28.7321C124.543 27.1865 123.403 25.5729 122.094 24.1332C121.285 23.2389 120.269 22.4722 119.224 21.876C116.277 20.1787 113.152 20.8803 111.144 23.6253C109.117 26.4066 108.396 29.6386 108.241 33.0041C107.975 38.5529 108.264 44.0817 109.286 49.5562C109.354 49.9091 109.297 50.2781 109.305 50.8529C108.611 50.9674 107.925 51.1797 107.243 51.174C94.2333 51.1133 82.5272 55.3555 71.849 62.5106C64.4432 67.4727 58.4865 73.9904 53.9696 81.7487C52.4268 84.396 51.1962 87.2237 49.8132 89.9644C49.437 90.7079 49.0316 91.4326 48.5722 92.2736C47.84 91.6753 47.3047 91.2027 46.7305 90.7681C43.0736 88.0218 38.7557 88.1943 35.3674 91.266C32.7219 93.6652 31.1628 96.6576 30.7661 100.237C30.4657 102.954 30.6211 105.63 31.3109 108.294C32.3023 112.129 33.6578 115.811 35.6877 119.211C38.6944 124.265 40.6542 125.958 46.1882 128.235C46.5062 129.25 46.8834 130.408 47.2404 131.575C50.5403 142.402 55.5199 152.348 62.6526 161.138C63.8834 162.654 65.2227 164.133 66.6992 165.399C72.3076 170.197 78.3045 174.419 85.177 177.222C85.8505 177.495 86.4951 177.847 87.1451 178.177C87.2391 178.227 87.278 178.378 87.4904 178.713C87.2045 179.078 86.914 179.57 86.5105 179.944C82.9909 183.214 79.2074 186.112 74.7571 187.978C68.4593 190.62 62.0604 191.227 55.4866 188.894C51.0897 187.332 47.4809 184.673 44.6136 181.04C42.1068 177.865 39.7896 174.528 37.4404 171.229C36.588 170.036 35.7925 168.769 35.8203 167.069C39.3413 164.1 42.1654 160.445 44.479 156.373C45.6049 154.388 46.1659 152.283 45.6772 149.99C45.1555 147.531 42.818 145.9 40.5208 146.421C39.9399 146.556 39.3697 146.836 38.8569 147.141C38.2312 147.517 37.668 147.987 36.9031 148.549C36.5721 147.83 36.2823 147.198 35.9994 146.567C35.2503 144.889 34.6998 143.078 33.7056 141.565C32.0001 138.983 29.1395 139.027 27.3544 141.594C26.6063 142.667 26.2031 143.988 25.5919 145.317C24.8055 145.116 24.0056 144.824 23.1774 144.717C20.7197 144.38 18.8875 145.645 18.3048 148.116C18.0565 149.18 17.9851 150.287 17.8231 151.485C16.8926 151.687 15.9214 151.808 15.013 152.121C12.5182 152.979 11.6333 154.932 12.6267 157.378C12.9416 158.161 13.4588 158.86 13.9045 159.627C13.326 160.455 12.6574 161.193 12.2341 162.052C11.3576 163.836 11.9268 165.808 13.592 166.898C14.3001 167.358 15.0971 167.797 15.9016 167.962C18.0465 168.393 20.2518 169.078 22.3742 168.921C25.9761 168.654 29.3745 169.588 32.5368 169.866C35.7259 174.282 38.6384 178.529 41.7751 182.612C46.48 188.733 52.6857 192.392 60.3382 193.327C65.3952 193.941 70.3523 193.293 75.0363 191.298C77.604 190.202 79.9952 188.692 82.4535 187.338C83.1749 186.941 83.8488 186.463 84.5267 186.041C85.2815 186.946 84.6328 187.577 84.3857 188.184C82.0703 193.745 79.6759 199.269 77.3675 204.828C72.321 217.004 68.6218 229.635 65.1357 242.327C64.029 246.366 63.4502 250.493 63.7493 254.744C64.0398 258.876 66.1455 261.323 69.9538 262.444C71.6662 262.949 73.4027 263.403 75.2262 263.906C68.199 272.784 53.8048 280.544 44.265 279.938C43.9683 279.118 43.6239 278.218 43.321 277.314C41.568 272.104 38.99 267.397 34.9646 263.612C33.9043 262.617 32.6435 261.826 31.436 261.003C30.9381 260.661 30.3506 260.424 29.7801 260.228C26.1937 259.006 22.9815 259.939 22.8896 264.92C22.8555 266.817 23.2508 268.598 24.0154 270.296C26.4939 275.824 30.2497 280.289 35.3463 283.518C36.564 284.291 38.0001 284.725 39.3706 285.213C40.6206 285.667 41.8365 285.472 42.6799 284.371C43.2822 283.583 44.003 283.459 44.9018 283.393C52.7431 282.833 59.8761 280.206 66.4233 275.855C71.2343 272.657 75.5809 268.911 79.4835 264.517C92.9249 265.339 106.259 264.323 119.582 262.312C120.835 263.187 121.459 264.488 121.891 265.923C122.944 269.458 123.956 273.004 125.076 276.513C126.953 282.367 128.912 288.2 130.823 294.043C131.092 294.859 131.299 295.692 131.573 296.675C130.799 297.68 130.026 298.698 130.003 300.174C129.99 301.227 129.372 302.269 129.01 303.313C127.975 306.337 126.918 309.355 125.897 312.378C125.258 314.278 125.096 316.226 125.436 318.208C126.114 322.122 129.282 323.803 132.766 321.931C134.023 321.263 135.252 320.288 136.121 319.157C139.661 314.565 141.057 309.354 140.045 303.542C139.731 301.74 138.978 300.189 137.328 299.399C135.814 298.67 135.304 297.409 134.83 295.971C132.026 287.443 128.951 279.005 126.629 270.315C125.842 267.37 124.775 264.495 123.777 261.412C124.398 261.169 124.922 260.92 125.473 260.76C129.808 259.491 134.18 258.353 138.47 256.955C141.83 255.864 145.092 254.472 148.382 253.183C148.943 252.966 149.484 252.659 149.979 252.313C150.74 251.78 151.02 250.875 150.611 250.028C150.184 249.148 149.638 248.332 149.097 247.509C146.48 243.5 143.843 239.499 141.219 235.491C135.055 226.075 130.589 215.825 126.909 205.221C124.651 198.723 122.731 192.101 120.663 185.532C120.5 185.109 120.429 184.63 120.216 183.615ZM132.212 91.4808C132.796 92.3287 133.303 92.9857 133.731 93.6978C136.221 97.7865 138.672 101.899 141.183 105.979C142.351 107.871 143.73 109.601 145.531 110.927C147.346 112.266 149.341 112.644 151.387 111.637C152.567 111.051 153.684 110.267 154.691 109.406C155.411 108.792 155.901 107.892 156.49 107.119C157.849 107.923 157.975 109.254 158.457 110.32C160.384 114.591 162.604 118.693 165.344 122.482C166.412 123.961 167.7 125.311 169.055 126.523C170.587 127.89 172.435 128.433 174.508 127.803C175.175 127.599 175.879 127.54 176.51 127.423C176.696 127.872 176.902 128.116 176.852 128.295C176.576 129.361 176.301 130.434 175.925 131.466C172.447 141.245 166.548 149.491 159.621 156.993C155.03 161.957 149.633 165.971 143.742 169.326C132.968 175.464 121.385 178.35 109.073 178.237C105.066 178.197 101.03 177.851 97.0652 177.246C93.9719 176.774 90.855 175.98 87.9415 174.835C77.7474 170.818 68.9359 164.812 62.4361 155.744C60.7242 153.359 59.2026 150.819 57.7687 148.245C52.0603 138.031 48.1414 127.291 48.0888 115.345C48.0625 109.137 48.8122 103.083 50.5856 97.1484C50.7578 96.5603 51.1504 96.04 51.5341 95.3029C53.3932 99.9716 55.8687 101.683 60.2127 101.487C60.9401 101.454 61.6673 101.323 62.3875 101.193C65.3569 100.643 67.927 99.2038 70.0856 97.1774C72.1343 95.2645 73.9264 93.0758 75.8537 91.0245C76.2274 90.625 76.4435 89.8792 77.3864 90.2234C77.7049 91.0558 78.0025 91.981 78.4075 92.8562C79.5387 95.2843 81.9152 97.6343 85.8158 96.9875C87.0105 96.7868 88.2075 96.5227 89.3522 96.1151C92.7667 94.9079 95.5476 92.7443 98.0092 90.1131C98.7311 89.3439 99.4752 88.5941 100.437 87.5967C100.933 88.9423 101.293 89.968 101.687 90.9773C103.82 96.4327 107.67 100.196 113.003 102.39C117.197 104.121 121.187 103.552 124.712 100.737C126.314 99.4536 127.675 97.8302 128.981 96.2178C130.135 94.8061 131.047 93.216 132.212 91.4808ZM158.368 72.7734C161.661 76.9078 164.985 80.6963 167.872 84.7976C172.802 91.793 176.282 99.4991 177.826 108.008C178.576 112.149 178.607 116.342 178.442 120.53C178.404 121.515 178.275 122.5 177.415 123.188C174.814 125.254 171.888 125.071 169.592 122.687C169.171 122.248 168.741 121.795 168.398 121.288C164.502 115.584 161.036 109.666 159.231 102.902C159.069 102.311 158.954 101.695 158.725 101.129C158.265 99.9777 156.74 99.7469 156.079 100.778C155.486 101.699 155.069 102.74 154.579 103.724C153.81 105.269 153.019 106.801 151.603 107.867C149.851 109.182 148.212 109.199 146.678 107.635C145.484 106.426 144.383 105.062 143.49 103.612C140.466 98.7 137.548 93.7098 134.583 88.7581C134.14 88.0191 133.742 87.2486 133.213 86.5791C132.593 85.7971 131.179 85.8597 130.658 86.7053C130.21 87.4261 129.931 88.2537 129.557 89.0252C127.955 92.3785 126.03 95.5032 123.141 97.8994C120.331 100.234 117.171 100.65 113.883 99.2377C108.88 97.0823 105.499 93.3753 104.15 87.9812C103.729 86.3214 103.553 84.5943 103.275 82.9028C103.16 82.1816 103.132 81.4328 102.942 80.7313C102.722 79.9196 101.398 79.5966 100.816 80.187C100.487 80.5272 100.226 80.9465 99.9854 81.3642C99.321 82.5361 98.767 83.791 98.0145 84.8993C95.1731 89.0742 91.5876 92.3008 86.6018 93.5964C83.5462 94.3911 81.627 93.2492 80.8767 90.1402C80.4758 88.4719 80.3133 86.7368 80.0012 85.0478C79.8879 84.4528 79.6985 83.8634 79.4425 83.314C79.1697 82.7237 77.9564 82.4838 77.4964 82.9389C77.0684 83.3565 76.6811 83.8553 76.4075 84.3878C74.8756 87.3711 72.7863 89.9607 70.4935 92.3338C68.8984 93.9886 67.0147 95.4051 65.1243 96.731C63.4913 97.8694 61.5374 98.2387 59.5409 98.2181C57.1686 98.1904 56.0286 97.3416 55.3354 95.0073C54.882 93.4762 54.5856 91.9053 54.1391 90.3737C53.8418 89.3572 53.9781 88.47 54.4377 87.5379C59.0453 78.1801 65.6185 70.5011 74.2545 64.7813C84.3616 58.0824 95.4586 54.3485 107.699 54.4381C110.272 54.458 112.811 54.5647 115.34 55.0299C119.287 55.762 123.245 56.4651 127.437 57.2281C128.191 59.158 130.028 60.1306 132.059 60.7099C133.806 61.212 135.611 61.6536 137.42 61.7722C138.586 61.8472 139.577 62.1738 140.494 62.7443C141.529 63.3834 142.483 64.1618 143.429 64.9337C145.707 66.7928 147.921 68.7268 150.23 70.5414C152.498 72.3522 155.039 73.455 158.368 72.7734ZM115.961 181.348C116.401 182.599 116.801 183.496 117.03 184.44C118.902 192.104 121.425 199.565 124.077 206.975C127.105 215.437 130.518 223.738 135.034 231.536C135.344 232.067 135.674 232.59 135.937 233.139C136.463 234.236 136.307 234.95 135.195 235.621C133.731 236.502 132.267 237.487 130.672 238.005C124.982 239.837 119.274 241.621 113.508 243.178C107.34 244.842 100.951 244.831 94.6205 245.23C87.9227 245.649 81.4895 244.469 75.1836 242.375C73.0033 241.653 70.768 240.843 69.5693 238.441C73.9858 221.393 80.2722 205.006 87.5164 188.977C88.9211 185.87 90.0581 182.621 91.9826 179.587C99.8427 181.454 107.74 181.655 115.961 181.348ZM146.617 250.261C145.995 250.595 145.393 251.011 144.73 251.25C140.597 252.714 136.493 254.274 132.305 255.545C123.425 258.238 114.411 260.344 105.109 260.893C100.486 261.165 95.8649 261.465 91.2365 261.668C85.2431 261.929 79.3055 261.345 73.4499 260.08C72.03 259.772 70.6441 259.264 69.2961 258.704C68.1058 258.21 67.3814 257.246 67.1918 255.899C66.5823 251.587 66.8833 247.368 68.4065 243.039C69.1055 243.282 69.6789 243.421 70.1982 243.678C75.5149 246.308 81.1573 247.792 87.018 248.277C93.2211 248.786 99.4367 248.332 105.623 247.769C113.44 247.056 120.896 244.757 128.321 242.319C131.347 241.323 134.254 240.105 136.957 238.403C137.436 238.101 137.977 237.906 138.435 237.697C141.161 241.116 145.418 247.67 146.617 250.261ZM132.955 45.9786C131.304 37.9124 130.697 29.9443 130.427 21.9442C130.359 19.9846 130.443 17.9997 130.66 16.047C130.874 14.1296 130.879 12.1295 132.036 10.0931C132.482 10.86 132.899 11.4255 133.153 12.0522C133.655 13.2991 133.983 14.6291 134.572 15.8344C134.777 16.2543 135.556 16.5474 136.086 16.5782C136.45 16.6004 136.979 16.1402 137.187 15.7599C137.469 15.2479 137.519 14.5987 137.663 14.0126C138.042 12.4619 138.372 10.9008 138.83 9.37933C138.969 8.90594 139.449 8.53358 139.817 8.05725C141.099 9.32353 141.719 10.6599 142.061 12.101C142.686 14.7281 143.221 17.3759 143.778 20.022C143.928 20.7406 143.882 21.5299 144.153 22.1905C144.363 22.6871 144.9 23.2718 145.372 23.3562C145.844 23.4405 146.597 23.097 146.901 22.6956C147.401 22.034 147.636 21.1606 147.996 20.3832C148.871 18.487 149.66 16.5481 150.652 14.7275C151.288 13.5576 152.17 12.496 153.071 11.5171C153.952 10.5606 155.189 10.6514 155.893 11.7149C156.566 12.7247 157.195 13.8217 157.551 14.9672C159.279 20.5016 158.921 25.931 156.178 31.0529C152.389 38.1327 146.637 43.3723 140.384 48.0315C137.765 47.2993 135.332 46.6305 132.955 45.9786ZM192.776 188.779C191.144 189.735 189.627 189.721 188.089 189.126C187.41 188.867 186.787 188.443 186.097 188.221C185.107 187.894 184.094 188.867 184.344 189.908C184.514 190.612 184.924 191.262 185.1 191.964C185.453 193.349 186.154 194.756 185.264 196.169C180.318 196.494 176.914 194.634 174.794 190.384C172.731 186.25 171.558 181.93 172.331 177.235C172.471 176.397 172.28 175.513 172.35 174.659C172.543 172.09 172.764 169.52 173.034 166.96C173.113 166.238 173.359 165.518 173.636 164.845C174.107 163.688 175.254 163.322 176.353 163.893C177.264 164.366 177.984 165.091 178.155 166.089C178.338 167.156 178.295 168.268 178.285 169.363C178.275 170.08 178.037 170.806 178.109 171.502C178.184 172.241 178.588 172.912 179.39 173.134C180.206 173.361 180.861 173.004 181.264 172.342C181.791 171.475 182.409 170.805 183.343 170.364C185.331 169.424 187.238 168.328 189.254 167.47C190.541 166.926 191.862 166.168 193.333 166.516C194.24 170.244 193.855 171.438 191.239 173.28C190.941 173.492 190.59 173.63 190.293 173.842C189.382 174.499 189.049 175.267 189.347 176.003C189.67 176.807 190.366 177.001 191.123 177.001C191.728 177.005 192.343 176.854 192.926 176.937C193.719 177.047 194.213 177.607 194.402 178.386C194.61 179.233 194.211 179.845 193.491 180.172C192.609 180.567 191.679 180.868 190.764 181.181C189.964 181.458 189.114 181.626 188.348 181.978C187.392 182.406 187.23 183.794 188.057 184.448C188.626 184.897 189.308 185.197 189.915 185.602C191.039 186.339 192.254 186.972 192.776 188.779ZM128.286 53.5587C123.575 53.6831 119.08 52.6689 114.599 51.4712C113.039 51.0535 112.512 49.9487 112.302 48.5049C111.585 43.4989 111.207 38.4608 111.378 33.4102C111.466 30.8286 111.958 28.2661 113.391 26.0198C114.619 24.0906 116.223 23.6068 118.012 24.9549C119.454 26.0408 120.783 27.3808 121.877 28.8294C124.634 32.4774 126.664 36.53 128.11 40.8855C128.924 43.3442 129.606 45.8127 129.846 48.4121C130.014 50.21 129.779 51.8412 128.286 53.5587ZM141.809 59.4543C142.238 57.8158 142.647 56.2909 143.034 54.7606C143.422 53.2234 143.774 51.6817 144.105 50.324C147.572 48.7971 159.216 45.598 162.685 45.2288C163.872 45.1058 165.102 44.727 166.326 45.4854C167.221 47.2644 166.616 49.0564 166.077 50.7944C164.351 56.3251 162.115 61.641 159.39 66.7475C159.158 67.1787 158.94 67.6228 158.65 68.0162C157.437 69.6708 155.987 70.0869 154.183 69.1891C153.202 68.7074 152.261 68.1035 151.411 67.4087C148.188 64.7987 145.015 62.1218 141.809 59.4543ZM169.439 150.428C170.285 149.081 170.843 148.163 171.437 147.263C174.565 142.54 177.223 137.572 179.086 132.2C179.608 130.695 180.008 129.142 180.529 127.63C181.314 125.355 183.027 124.358 185.387 124.885C188.356 125.549 190.472 127.294 191.212 130.347C192.673 136.407 190.808 141.576 186.54 145.814C182.581 149.735 177.45 150.852 172.091 151.038C171.39 151.062 170.685 150.729 169.439 150.428ZM30.7907 143.325C31.1546 143.831 31.6589 144.355 31.9551 144.979C33.1446 147.445 33.5637 150.115 33.8664 152.808C33.9734 153.79 33.9652 154.906 35.116 155.242C36.5086 155.651 36.9477 154.44 37.5847 153.557C38.4363 152.379 39.3081 151.191 40.3162 150.155C40.6132 149.846 41.4702 149.873 41.9562 150.055C42.285 150.178 42.5753 150.816 42.621 151.248C42.7871 152.653 42.2707 153.947 41.4974 155.057C39.7497 157.565 37.8911 159.983 36.0846 162.446C34.2268 164.97 31.6441 165.673 28.6828 165.577C27.2405 165.529 25.7881 165.63 24.3417 165.716C21.6429 165.881 18.9822 165.713 16.4298 164.751C15.9294 164.564 15.5339 164.102 14.938 163.655C15.559 163.027 15.9261 162.536 16.4023 162.206C16.9972 161.79 17.6944 161.535 18.3126 161.153C19.7489 160.267 19.6784 158.932 18.1669 158.041C17.6439 157.736 17.0399 157.556 16.5489 157.214C16.0728 156.884 15.5501 156.488 15.8041 155.501C16.2468 155.377 16.7796 155.155 17.338 155.092C18.8267 154.919 19.7667 155.979 20.8899 156.696C21.2769 156.948 22.1416 156.891 22.5097 156.604C22.8843 156.309 23.1068 155.556 23.0614 155.033C23.0128 154.468 22.5095 153.958 22.3212 153.383C21.9376 152.233 21.5253 151.07 21.3332 149.878C21.2547 149.378 21.5548 148.64 21.9317 148.283C22.568 147.674 23.3901 148.076 23.8987 148.565C24.6763 149.307 25.3398 150.198 25.9686 151.092C26.598 151.993 27.0556 153.109 28.4462 152.831C29.3776 152.643 29.5968 151.749 29.424 149.685C29.3022 148.221 29.2007 146.748 29.2315 145.279C29.2503 144.4 29.5278 143.545 30.7907 143.325ZM45.3206 124.384C44.1403 123.742 43.5751 123.524 43.1246 123.165C42.3637 122.554 41.5613 121.947 40.9699 121.184C36.4848 115.405 33.7305 108.964 33.8745 101.481C33.9391 98.2061 35.3883 95.6078 37.7449 93.4405C39.6454 91.6859 42.5627 91.7504 44.1856 92.9283C46.1605 94.3538 47.619 96.2244 46.7711 98.8694C46.658 99.2216 46.58 99.5782 46.4956 99.9423C44.9905 106.593 44.589 113.317 45.1029 120.106C45.2051 121.305 45.2318 122.517 45.3206 124.384ZM26.5075 263.172C27.0908 263.164 27.7702 262.952 28.2322 263.184C29.6389 263.88 31.1143 264.564 32.2873 265.578C36.1846 268.945 38.5197 273.375 40.2286 278.175C40.7191 279.549 40.3561 280.754 39.4952 281.807C39.1296 281.75 38.8663 281.763 38.664 281.658C32.9284 278.814 29.1237 274.156 26.6448 268.34C25.9809 266.782 25.7892 265.028 26.5075 263.172ZM133.324 301.387C136.016 301.791 137.043 303.28 137.147 305.728C137.319 309.946 136.221 313.732 133.709 317.09C132.969 318.085 132.069 318.888 130.853 319.273C129.841 319.594 128.872 319.076 128.6 318.037C128.22 316.556 128.371 315.107 128.836 313.683C129.716 311.008 130.582 308.326 131.527 305.674C132.058 304.203 132.739 302.778 133.324 301.387ZM131.097 56.6202C132.456 54.3023 132.629 51.7494 134.305 49.7798C136.613 50.1562 138.636 50.8133 140.14 52.9332C139.836 54.1766 139.614 55.5052 139.178 56.7654C138.686 58.1982 137.896 58.6145 136.327 58.4501C134.618 58.2749 132.968 57.8569 131.097 56.6202Z" fill="#703F59"/>
<path fill-rule="evenodd" clip-rule="evenodd" d="M97.9355 143.612C97.9149 142.386 97.9969 141.138 97.8183 139.937C97.7488 139.465 97.1409 138.949 96.6502 138.704C96.1086 138.429 95.1178 139.134 95.0239 139.843C94.5735 143.265 94.2161 146.723 95.4412 150.056C97.3252 155.165 103.161 157.953 108.285 156.267C113.748 154.472 116.64 150.314 116.405 144.564C116.383 144.075 116.312 143.582 116.193 143.106C115.969 142.225 115.049 141.626 114.263 141.811C113.409 142.015 113.152 142.679 113.085 143.463C112.955 144.918 113.024 146.422 112.675 147.823C111.765 151.518 107.776 154.074 104.031 153.531C101.6 153.178 98.6632 150.484 98.2247 148.018C97.9728 146.577 97.9811 145.082 97.8728 143.61C97.901 143.615 97.9217 143.613 97.9355 143.612Z" fill="#703F59"/>
<path fill-rule="evenodd" clip-rule="evenodd" d="M129.826 134.427C130.059 137.314 132.719 139.545 135.626 139.287C138.243 139.051 140.236 136.664 140.059 133.969C139.871 131.12 137.538 129.265 134.478 129.528C131.308 129.805 129.598 131.602 129.826 134.427Z" fill="#703F59"/>
<path fill-rule="evenodd" clip-rule="evenodd" d="M76.1157 122.426C76.5458 126.008 80.8327 128.251 83.9158 126.506C85.7242 125.481 86.6105 123.072 85.9141 121.067C84.9263 118.222 81.0776 116.55 78.367 117.782C76.786 118.496 75.8749 120.381 76.1157 122.426Z" fill="#703F59"/>
</svg>
